<?xml version="1.0" encoding="UTF-8" standalone="no"?><svg xmlns="http://www.w3.org/2000/svg" xmlns:xlink="http://www.w3.org/1999/xlink" contentScriptType="application/ecmascript" contentStyleType="text/css" height="3583px" preserveAspectRatio="none" style="width:952px;height:3583px;" version="1.1" viewBox="0 0 952 3583" width="952px" zoomAndPan="magnify"><defs/><g><!--MD5=[a6f11bb19cee6b13000111f5ad685e8b]
cluster Dependencies--><path d="M779,1483.83 L873,1483.83 A4.5,4.5 0 0 1 876,1486.83 L883,1504.3144 L937,1504.3144 A3,3 0 0 1 940,1507.3144 L940,1927.83 A3,3 0 0 1 937,1930.83 L779,1930.83 A3,3 0 0 1 776,1927.83 L776,1486.83 A3,3 0 0 1 779,1483.83 " fill="#FFFFFF" style="stroke: #000000; stroke-width: 1.5;"/><line style="stroke: #000000; stroke-width: 1.5;" x1="776" x2="883" y1="1504.3144" y2="1504.3144"/><text fill="#000000" font-family="Tahoma, sans-serif" font-size="12" font-weight="bold" lengthAdjust="spacingAndGlyphs" textLength="94" x="780" y="1497.8359">Dependencies</text><!--MD5=[92c76255242b65bb2780cba28222c775]
entity axios--><rect fill="#F8F8F8" height="34.4844" rx="3" ry="3" style="stroke: #383838; stroke-width: 1.0;" width="51" x="832.5" y="1672.83"/><rect fill="#F8F8F8" height="5" style="stroke: #383838; stroke-width: 1.0;" width="10" x="827.5" y="1677.83"/><rect fill="#F8F8F8" height="5" style="stroke: #383838; stroke-width: 1.0;" width="10" x="827.5" y="1697.3144"/><text fill="#000000" font-family="Tahoma, sans-serif" font-size="12" lengthAdjust="spacingAndGlyphs" textLength="31" x="842.5" y="1694.8359">axios</text><!--MD5=[7a199650d090603358194377cd2d7296]
entity bootstrap--><rect fill="#F8F8F8" height="34.4844" rx="3" ry="3" style="stroke: #383838; stroke-width: 1.0;" width="76" x="820" y="1776.83"/><rect fill="#F8F8F8" height="5" style="stroke: #383838; stroke-width: 1.0;" width="10" x="815" y="1781.83"/><rect fill="#F8F8F8" height="5" style="stroke: #383838; stroke-width: 1.0;" width="10" x="815" y="1801.3144"/><text fill="#000000" font-family="Tahoma, sans-serif" font-size="12" lengthAdjust="spacingAndGlyphs" textLength="56" x="830" y="1798.8359">bootstrap</text><!--MD5=[cb3d66c929489a99ecf6c8633ae21583]
entity react--><rect fill="#F8F8F8" height="34.4844" rx="3" ry="3" style="stroke: #383838; stroke-width: 1.0;" width="49" x="833.5" y="1724.83"/><rect fill="#F8F8F8" height="5" style="stroke: #383838; stroke-width: 1.0;" width="10" x="828.5" y="1729.83"/><rect fill="#F8F8F8" height="5" style="stroke: #383838; stroke-width: 1.0;" width="10" x="828.5" y="1749.3144"/><text fill="#000000" font-family="Tahoma, sans-serif" font-size="12" lengthAdjust="spacingAndGlyphs" textLength="29" x="843.5" y="1746.8359">react</text><!--MD5=[3219a07fe69a2fc218bc3c75093de260]
entity react-bootstrap--><rect fill="#F8F8F8" height="34.4844" rx="3" ry="3" style="stroke: #383838; stroke-width: 1.0;" width="110" x="803" y="1828.83"/><rect fill="#F8F8F8" height="5" style="stroke: #383838; stroke-width: 1.0;" width="10" x="798" y="1833.83"/><rect fill="#F8F8F8" height="5" style="stroke: #383838; stroke-width: 1.0;" width="10" x="798" y="1853.3144"/><text fill="#000000" font-family="Tahoma, sans-serif" font-size="12" lengthAdjust="spacingAndGlyphs" textLength="90" x="813" y="1850.8359">react-bootstrap</text><!--MD5=[7a87f47ef40d6587eff4ec588325b680]
entity react-dom--><rect fill="#F8F8F8" height="34.4844" rx="3" ry="3" style="stroke: #383838; stroke-width: 1.0;" width="80" x="818" y="1516.83"/><rect fill="#F8F8F8" height="5" style="stroke: #383838; stroke-width: 1.0;" width="10" x="813" y="1521.83"/><rect fill="#F8F8F8" height="5" style="stroke: #383838; stroke-width: 1.0;" width="10" x="813" y="1541.3144"/><text fill="#000000" font-family="Tahoma, sans-serif" font-size="12" lengthAdjust="spacingAndGlyphs" textLength="60" x="828" y="1538.8359">react-dom</text><!--MD5=[2cbbe3cf92a07bac7bdaf9d3278637f7]
entity react-icons--><rect fill="#F8F8F8" height="34.4844" rx="3" ry="3" style="stroke: #383838; stroke-width: 1.0;" width="86" x="815" y="1880.83"/><rect fill="#F8F8F8" height="5" style="stroke: #383838; stroke-width: 1.0;" width="10" x="810" y="1885.83"/><rect fill="#F8F8F8" height="5" style="stroke: #383838; stroke-width: 1.0;" width="10" x="810" y="1905.3144"/><text fill="#000000" font-family="Tahoma, sans-serif" font-size="12" lengthAdjust="spacingAndGlyphs" textLength="66" x="825" y="1902.8359">react-icons</text><!--MD5=[8b3071e04b49870aac409014903e1f44]
entity react-router-dom--><rect fill="#F8F8F8" height="34.4844" rx="3" ry="3" style="stroke: #383838; stroke-width: 1.0;" width="119" x="798.5" y="1620.83"/><rect fill="#F8F8F8" height="5" style="stroke: #383838; stroke-width: 1.0;" width="10" x="793.5" y="1625.83"/><rect fill="#F8F8F8" height="5" style="stroke: #383838; stroke-width: 1.0;" width="10" x="793.5" y="1645.3144"/><text fill="#000000" font-family="Tahoma, sans-serif" font-size="12" lengthAdjust="spacingAndGlyphs" textLength="99" x="808.5" y="1642.8359">react-router-dom</text><!--MD5=[755a468fa866bb84bd66ce5531cd63b7]
entity styled-components--><rect fill="#F8F8F8" height="34.4844" rx="3" ry="3" style="stroke: #383838; stroke-width: 1.0;" width="132" x="792" y="1568.83"/><rect fill="#F8F8F8" height="5" style="stroke: #383838; stroke-width: 1.0;" width="10" x="787" y="1573.83"/><rect fill="#F8F8F8" height="5" style="stroke: #383838; stroke-width: 1.0;" width="10" x="787" y="1593.3144"/><text fill="#000000" font-family="Tahoma, sans-serif" font-size="12" lengthAdjust="spacingAndGlyphs" textLength="112" x="802" y="1590.8359">styled-components</text><ellipse cx="68.3492" cy="2108.072" fill="#F8F8F8" rx="17.8492" ry="13.242" style="stroke: #383838; stroke-width: 0.5;"/><text fill="#000000" font-family="Tahoma, sans-serif" font-size="12" lengthAdjust="spacingAndGlyphs" textLength="21" x="57.8492" y="2111.8142">App</text><ellipse cx="606.3534" cy="2443.9007" fill="#F8F8F8" rx="55.8534" ry="13.5707" style="stroke: #383838; stroke-width: 0.5;"/><text fill="#000000" font-family="Tahoma, sans-serif" font-size="12" lengthAdjust="spacingAndGlyphs" textLength="77" x="567.8534" y="2447.6429">ButtonNavbar</text><ellipse cx="606.6408" cy="1801.7582" fill="#F8F8F8" rx="65.1408" ry="15.4282" style="stroke: #383838; stroke-width: 0.5;"/><text fill="#000000" font-family="Tahoma, sans-serif" font-size="12" lengthAdjust="spacingAndGlyphs" textLength="101" x="556.1408" y="1805.5004">ClassesContainer</text><ellipse cx="389.6876" cy="1687.6675" fill="#F8F8F8" rx="69.6876" ry="16.3375" style="stroke: #383838; stroke-width: 0.5;"/><text fill="#000000" font-family="Tahoma, sans-serif" font-size="12" font-weight="bold" lengthAdjust="spacingAndGlyphs" textLength="112" x="333.6876" y="1691.4097">EngineerCourses</text><ellipse cx="68.7284" cy="1030.7757" fill="#F8F8F8" rx="62.7284" ry="14.9457" style="stroke: #383838; stroke-width: 0.5;"/><text fill="#000000" font-family="Tahoma, sans-serif" font-size="12" font-weight="bold" lengthAdjust="spacingAndGlyphs" textLength="95" x="21.2284" y="1034.5179">EngineerHome</text><ellipse cx="606.5993" cy="1912.6499" fill="#F8F8F8" rx="59.5993" ry="14.3199" style="stroke: #383838; stroke-width: 0.5;"/><text fill="#000000" font-family="Tahoma, sans-serif" font-size="12" font-weight="bold" lengthAdjust="spacingAndGlyphs" textLength="87" x="563.0993" y="1916.392">EngineerView</text><ellipse cx="389.6335" cy="1953.072" fill="#F8F8F8" rx="46.1335" ry="13.242" style="stroke: #383838; stroke-width: 0.5;"/><text fill="#000000" font-family="Tahoma, sans-serif" font-size="12" lengthAdjust="spacingAndGlyphs" textLength="61" x="359.1335" y="1956.8142">HRClasses</text><ellipse cx="606.5477" cy="1376.072" fill="#F8F8F8" rx="47.5477" ry="13.242" style="stroke: #383838; stroke-width: 0.5;"/><text fill="#000000" font-family="Tahoma, sans-serif" font-size="12" lengthAdjust="spacingAndGlyphs" textLength="63" x="575.0477" y="1379.8142">HRCourses</text><ellipse cx="606.4548" cy="2039.921" fill="#F8F8F8" rx="58.4548" ry="14.091" style="stroke: #383838; stroke-width: 0.5;"/><text fill="#000000" font-family="Tahoma, sans-serif" font-size="12" lengthAdjust="spacingAndGlyphs" textLength="84" x="564.4548" y="2043.6631">HRCreateClass</text><ellipse cx="606.4363" cy="721.6173" fill="#F8F8F8" rx="61.9363" ry="14.7873" style="stroke: #383838; stroke-width: 0.5;"/><text fill="#000000" font-family="Tahoma, sans-serif" font-size="12" lengthAdjust="spacingAndGlyphs" textLength="93" x="559.9363" y="725.3594">HRCreateCourse</text><ellipse cx="606.5833" cy="1294.072" fill="#F8F8F8" rx="51.0833" ry="13.242" style="stroke: #383838; stroke-width: 0.5;"/><text fill="#000000" font-family="Tahoma, sans-serif" font-size="12" lengthAdjust="spacingAndGlyphs" textLength="68" x="572.5833" y="1297.8142">HREditClass</text><ellipse cx="606.3534" cy="2172.9007" fill="#F8F8F8" rx="55.8534" ry="13.5707" style="stroke: #383838; stroke-width: 0.5;"/><text fill="#000000" font-family="Tahoma, sans-serif" font-size="12" lengthAdjust="spacingAndGlyphs" textLength="77" x="567.8534" y="2176.6429">HREditCourse</text><ellipse cx="606.6127" cy="996.072" fill="#F8F8F8" rx="34.1127" ry="13.242" style="stroke: #383838; stroke-width: 0.5;"/><text fill="#000000" font-family="Tahoma, sans-serif" font-size="12" lengthAdjust="spacingAndGlyphs" textLength="44" x="584.6127" y="999.8142">HREnrol</text><ellipse cx="606.2601" cy="2235.882" fill="#F8F8F8" rx="60.7601" ry="14.552" style="stroke: #383838; stroke-width: 0.5;"/><text fill="#000000" font-family="Tahoma, sans-serif" font-size="12" lengthAdjust="spacingAndGlyphs" textLength="90" x="561.2601" y="2239.6242">HREnrolClasses</text><ellipse cx="606.6482" cy="2665.073" fill="#F8F8F8" rx="37.6482" ry="13.242" style="stroke: #383838; stroke-width: 0.5;"/><text fill="#000000" font-family="Tahoma, sans-serif" font-size="12" lengthAdjust="spacingAndGlyphs" textLength="49" x="582.1482" y="2668.8152">HRHome</text><ellipse cx="225.5122" cy="2108.072" fill="#F8F8F8" rx="44.0122" ry="13.242" style="stroke: #383838; stroke-width: 0.5;"/><text fill="#000000" font-family="Tahoma, sans-serif" font-size="12" lengthAdjust="spacingAndGlyphs" textLength="58" x="196.5122" y="2111.8142">HRRouting</text><ellipse cx="68.3492" cy="1077.072" fill="#F8F8F8" rx="17.8492" ry="13.242" style="stroke: #383838; stroke-width: 0.5;"/><text fill="#000000" font-family="Tahoma, sans-serif" font-size="12" font-weight="bold" lengthAdjust="spacingAndGlyphs" textLength="21" x="57.8492" y="1080.8142">src</text><ellipse cx="606.689" cy="380.6678" fill="#F8F8F8" rx="67.189" ry="15.8378" style="stroke: #383838; stroke-width: 0.5;"/><text fill="#000000" font-family="Tahoma, sans-serif" font-size="12" lengthAdjust="spacingAndGlyphs" textLength="106" x="553.689" y="384.41">TrainerCourseCard</text><ellipse cx="389.4562" cy="2749.9222" fill="#F8F8F8" rx="65.9562" ry="15.5912" style="stroke: #383838; stroke-width: 0.5;"/><text fill="#000000" font-family="Tahoma, sans-serif" font-size="12" lengthAdjust="spacingAndGlyphs" textLength="103" x="337.9562" y="2753.6644">TrainerCreateQuiz</text><ellipse cx="389.4148" cy="1505.613" fill="#F8F8F8" rx="54.4148" ry="13.283" style="stroke: #383838; stroke-width: 0.5;"/><text fill="#000000" font-family="Tahoma, sans-serif" font-size="12" lengthAdjust="spacingAndGlyphs" textLength="73" x="352.9148" y="1509.3551">TrainerHome</text><ellipse cx="606.6526" cy="2838.7615" fill="#F8F8F8" rx="72.6526" ry="16.9305" style="stroke: #383838; stroke-width: 0.5;"/><text fill="#000000" font-family="Tahoma, sans-serif" font-size="12" lengthAdjust="spacingAndGlyphs" textLength="119" x="547.1526" y="2842.5037">TrainerMCQQuestion</text><ellipse cx="225.7013" cy="2727.7713" fill="#F8F8F8" rx="57.7013" ry="13.9403" style="stroke: #383838; stroke-width: 0.5;"/><text fill="#000000" font-family="Tahoma, sans-serif" font-size="12" lengthAdjust="spacingAndGlyphs" textLength="82" x="184.7013" y="2731.5134">TrainerRouting</text><ellipse cx="606.2768" cy="2787.5864" fill="#F8F8F8" rx="66.7768" ry="15.7554" style="stroke: #383838; stroke-width: 0.5;"/><text fill="#000000" font-family="Tahoma, sans-serif" font-size="12" lengthAdjust="spacingAndGlyphs" textLength="105" x="553.7768" y="2791.3286">TrainerTFQuestion</text><ellipse cx="389.7352" cy="3243.678" fill="#F8F8F8" rx="64.7352" ry="15.347" style="stroke: #383838; stroke-width: 0.5;"/><text fill="#000000" font-family="Tahoma, sans-serif" font-size="12" lengthAdjust="spacingAndGlyphs" textLength="100" x="339.7352" y="3247.4202">TrainerViewResult</text><ellipse cx="606.4619" cy="3393.073" fill="#F8F8F8" rx="48.9619" ry="13.242" style="stroke: #383838; stroke-width: 0.5;"/><text fill="#000000" font-family="Tahoma, sans-serif" font-size="12" lengthAdjust="spacingAndGlyphs" textLength="65" x="573.9619" y="3396.8152">UserNavbar</text><!--MD5=[d9fe6176518ff2bdfcf0d1fa3f726280]
link App to HRRouting--><path d="M86.6799,2107.83 C108.139,2107.83 145.745,2107.83 176.258,2107.83 " fill="none" id="App-&gt;HRRouting" style="stroke: #000000; stroke-width: 0.5;"/><polygon fill="#000000" points="181.478,2107.83,172.478,2103.83,176.478,2107.83,172.478,2111.83,181.478,2107.83" style="stroke: #000000; stroke-width: 0.5;"/><!--MD5=[8b1bc8dce47f6f1c3fdd120c5f75aa32]
link App to react--><path d="M75.1209,2120.09 C101.5638,2175.73 219.417,2401.83 388.5,2401.83 C388.5,2401.83 388.5,2401.83 497,2401.83 C599.596,2401.83 622.245,2345.3 679,2259.83 C750.57,2152.05 734.026,2106.5 755,1978.83 C758.808,1955.65 753.339,1786.18 768,1767.83 C782.264,1749.98 808.079,1743.93 828.246,1742.08 " fill="none" id="App-&gt;react" style="stroke: #000000; stroke-width: 0.5;"/><polygon fill="#000000" points="833.241,1741.7,823.9612,1738.4008,828.2557,1742.0828,824.5737,1746.3773,833.241,1741.7" style="stroke: #000000; stroke-width: 0.5;"/><!--MD5=[682f1bf47afe1897b05bd8fc013b1698]
link App to react-bootstrap--><path d="M70.4111,2120.93 C78.7759,2237.39 145.909,3095.175 320,3268.831 C413.556,3362.153 473.358,3351.831 605.5,3351.831 C605.5,3351.831 605.5,3351.831 717,3351.831 C747.818,3351.831 746.053,3323.321 755,3293.831 C766.469,3256.031 744.162,1903.33 768,1871.83 C775.395,1862.06 786.262,1855.8 797.882,1851.83 " fill="none" id="App-&gt;react-bootstrap" style="stroke: #000000; stroke-width: 0.5;"/><polygon fill="#000000" points="802.9,1850.26,793.1171,1849.1219,798.1269,1851.7491,795.4997,1856.7589,802.9,1850.26" style="stroke: #000000; stroke-width: 0.5;"/><!--MD5=[082267c399713cee8c8b667a9e60f5c8]
link App to react-router-dom--><path d="M70.5035,2094.81 C82.6496,1938.44 203.013,423.78 320,266.83 C339.971,240.04 355.083,235.83 388.5,235.83 C388.5,235.83 388.5,235.83 717,235.83 C743.862,235.83 745.919,257.55 755,282.83 C767.48,317.58 745.711,1582.4 768,1611.83 C774.431,1620.32 783.484,1626.16 793.373,1630.15 " fill="none" id="App-&gt;react-router-dom" style="stroke: #000000; stroke-width: 0.5;"/><polygon fill="#000000" points="798.287,1631.97,791.2245,1625.1055,793.5952,1630.2416,788.4591,1632.6123,798.287,1631.97" style="stroke: #000000; stroke-width: 0.5;"/><!--MD5=[5518eefbdadabe7b75997b964e9b7679]
link App to styled-components--><path d="M70.2265,2094.54 C77.6202,1959.79 139.539,842.6 168,697.83 C209.616,486.14 192.686,411 320,236.83 C410.093,113.58 452.834,45.83 605.5,45.83 C605.5,45.83 605.5,45.83 717,45.83 C743.862,45.83 745.931,67.55 755,92.83 C768.758,131.19 743.412,1527.33 768,1559.83 C773.067,1566.53 779.765,1571.58 787.22,1575.37 " fill="none" id="App-&gt;styled-components" style="stroke: #000000; stroke-width: 0.5;"/><polygon fill="#000000" points="791.951,1577.57,785.4735,1570.151,787.4163,1575.4638,782.1035,1577.4066,791.951,1577.57" style="stroke: #000000; stroke-width: 0.5;"/><!--MD5=[c95f0592a4ada3cf1ddec57bf2d9c74f]
link App to TrainerRouting--><path d="M72.6664,2120.5 C92.1962,2198.62 196.216,2614.696 219.76,2708.872 " fill="none" id="App-&gt;TrainerRouting" style="stroke: #000000; stroke-width: 0.5;"/><polygon fill="#000000" points="221.008,2713.864,222.7051,2704.1625,219.795,2709.0134,214.9441,2706.1033,221.008,2713.864" style="stroke: #000000; stroke-width: 0.5;"/><!--MD5=[d00dd0ea5f18a1ac7d61d7674412e714]
link ButtonNavbar to react-bootstrap--><path d="M650.878,2452.1 C661.693,2456.24 672.146,2462.47 679,2471.83 C751.653,2571.009 626.207,2939.855 716,3023.831 C728.66,3035.671 742.675,3036.018 755,3023.831 C777.756,3001.33 748.66,1897.33 768,1871.83 C775.405,1862.07 786.277,1855.81 797.897,1851.84 " fill="none" id="ButtonNavbar-&gt;react-bootstrap" style="stroke: #000000; stroke-width: 0.5;"/><polygon fill="#000000" points="802.916,1850.28,793.1338,1849.1362,798.142,1851.7663,795.5119,1856.7746,802.916,1850.28" style="stroke: #000000; stroke-width: 0.5;"/><!--MD5=[94913ad31fcb5fab74585925673ec986]
link ClassesContainer to axios--><path d="M606.965,1785.96 C606.099,1731.47 611.494,1551.19 716,1475.83 C730.059,1465.69 742.328,1464 755,1475.83 C785.616,1504.4 741.739,1631.21 768,1663.83 C782.085,1681.33 807.255,1687.47 827.243,1689.45 " fill="none" id="ClassesContainer-&gt;axios" style="stroke: #000000; stroke-width: 0.5;"/><polygon fill="#000000" points="832.466,1689.88,823.8281,1685.1485,827.4832,1689.466,823.1657,1693.121,832.466,1689.88" style="stroke: #000000; stroke-width: 0.5;"/><!--MD5=[67a53f7283c1f1aef3bf51ec4ca2f9c3]
link ClassesContainer to bootstrap--><path d="M667.465,1807.23 C694.266,1808.88 726.235,1809.8 755,1807.83 C774.723,1806.48 796.443,1803.69 814.753,1800.95 " fill="none" id="ClassesContainer-&gt;bootstrap" style="stroke: #000000; stroke-width: 0.5;"/><polygon fill="#000000" points="819.822,1800.18,810.323,1797.5781,814.8788,1800.9315,811.5254,1805.4872,819.822,1800.18" style="stroke: #000000; stroke-width: 0.5;"/><!--MD5=[d8cb455e199b966da368f6928af411d1]
link ClassesContainer to react-bootstrap--><path d="M624.365,1816.81 C641.334,1832.98 666.699,1860.41 679,1889.83 C750.792,2061.55 595.677,2203.98 754,2301.83 C774.332,2314.4 753.376,1890.74 768,1871.83 C775.411,1862.25 786.156,1856.05 797.633,1852.08 " fill="none" id="ClassesContainer-&gt;react-bootstrap" style="stroke: #000000; stroke-width: 0.5;"/><polygon fill="#000000" points="802.589,1850.51,792.8016,1849.4119,797.822,1852.0186,795.2153,1857.0391,802.589,1850.51" style="stroke: #000000; stroke-width: 0.5;"/><!--MD5=[cffeab8c84c0485d68c2f79402f992e9]
link ClassesContainer to react-router-dom--><path d="M610.786,1786.12 C621.944,1732.26 658.807,1550 679,1397.83 C685.105,1351.83 681.764,1013.16 716,981.83 C728.788,970.13 742.618,969.7 755,981.83 C780.008,1006.33 746.714,1584.04 768,1611.83 C774.477,1620.29 783.552,1626.11 793.449,1630.09 " fill="none" id="ClassesContainer-&gt;react-router-dom" style="stroke: #000000; stroke-width: 0.5;"/><polygon fill="#000000" points="798.366,1631.91,791.2999,1625.0493,793.6733,1630.1841,788.5385,1632.5576,798.366,1631.91" style="stroke: #000000; stroke-width: 0.5;"/><!--MD5=[aace3482b91ae64358908206a630c852]
link <b>EngineerCourses</b> to axios--><path d="M399.76,1671.29 C415.064,1643.06 445.299,1583.34 459,1528.83 C506.464,1339.99 396.453,793.65 534,655.83 C591.673,598.04 650.767,592.09 717,639.83 C760.326,671.06 746.069,701.18 755,753.83 C759.228,778.76 752.692,1643.71 768,1663.83 C781.658,1681.78 807.03,1687.87 827.199,1689.71 " fill="none" id="&lt;b&gt;EngineerCourses&lt;/b&gt;-&gt;axios" style="stroke: #000000; stroke-width: 1.0;"/><polygon fill="#000000" points="832.205,1690.09,823.5324,1685.4225,827.2192,1689.7129,822.9289,1693.3997,832.205,1690.09" style="stroke: #000000; stroke-width: 1.0;"/><!--MD5=[44e0ff59f603013ce8ae5956b642a7ed]
link <b>EngineerCourses</b> to bootstrap--><path d="M394.178,1704.53 C405.468,1751.26 444.437,1883.42 534,1936.83 C618.465,1987.2 695.707,2004.29 755,1925.83 C783.617,1887.96 737.267,1856 768,1819.83 C779.524,1806.27 797.694,1799.57 814.621,1796.34 " fill="none" id="&lt;b&gt;EngineerCourses&lt;/b&gt;-&gt;bootstrap" style="stroke: #000000; stroke-width: 1.0;"/><polygon fill="#000000" points="819.825,1795.44,810.2768,1793.0251,814.8975,1796.2884,811.6342,1800.9091,819.825,1795.44" style="stroke: #000000; stroke-width: 1.0;"/><!--MD5=[87168221106bfd1719ee3d6279648a68]
link <b>EngineerCourses</b> to ButtonNavbar--><path d="M395.865,1704.46 C408.336,1743.59 439.683,1844.65 459,1930.83 C461.754,1943.12 528.01,2366.76 534,2377.83 C545.166,2398.48 565.272,2416.15 581.326,2428 " fill="none" id="&lt;b&gt;EngineerCourses&lt;/b&gt;-&gt;ButtonNavbar" style="stroke: #000000; stroke-width: 1.0;"/><polygon fill="#000000" points="585.735,2431.19,580.7787,2422.6791,581.6809,2428.2636,576.0964,2429.1658,585.735,2431.19" style="stroke: #000000; stroke-width: 1.0;"/><!--MD5=[cde9bb3cadbc149bbd14879e910dde74]
link <b>EngineerCourses</b> to react--><path d="M420.578,1702.72 C477.51,1729.23 605.333,1780.89 717,1769.83 C756.011,1765.97 800.255,1756.19 828.376,1749.28 " fill="none" id="&lt;b&gt;EngineerCourses&lt;/b&gt;-&gt;react" style="stroke: #000000; stroke-width: 1.0;"/><polygon fill="#000000" points="833.434,1748.03,823.7359,1746.3134,828.5809,1749.2333,825.6611,1754.0783,833.434,1748.03" style="stroke: #000000; stroke-width: 1.0;"/><!--MD5=[e611309f1b594e5c8512b87932cf7dbc]
link <b>EngineerCourses</b> to react-bootstrap--><path d="M395.777,1704.48 C408.059,1743.65 439.032,1844.8 459,1930.83 C460.306,1936.46 530.65,2335.13 534,2339.83 C576.941,2400.14 639.622,2359.14 679,2421.83 C745.805,2528.194 624.325,2899.973 716,2985.831 C728.651,2997.68 742.672,2998.016 755,2985.831 C777.01,2964.077 749.293,1896.48 768,1871.83 C775.407,1862.07 786.279,1855.81 797.9,1851.84 " fill="none" id="&lt;b&gt;EngineerCourses&lt;/b&gt;-&gt;react-bootstrap" style="stroke: #000000; stroke-width: 1.0;"/><polygon fill="#000000" points="802.918,1850.28,793.1351,1849.1419,798.1449,1851.7691,795.5177,1856.7789,802.918,1850.28" style="stroke: #000000; stroke-width: 1.0;"/><!--MD5=[0f52a892f8d530314f4bbf01d1bfdaab]
link <b>EngineerCourses</b> to react-router-dom--><path d="M400.004,1671.34 C415.667,1643.2 446.417,1583.61 459,1528.83 C485.333,1414.19 449.257,554.41 534,472.83 C605.144,404.34 684.782,380.39 755,449.83 C777.953,472.53 748.494,1586.11 768,1611.83 C774.437,1620.32 783.492,1626.15 793.383,1630.14 " fill="none" id="&lt;b&gt;EngineerCourses&lt;/b&gt;-&gt;react-router-dom" style="stroke: #000000; stroke-width: 1.0;"/><polygon fill="#000000" points="798.298,1631.96,791.2355,1625.0955,793.6062,1630.2316,788.4701,1632.6023,798.298,1631.96" style="stroke: #000000; stroke-width: 1.0;"/><!--MD5=[b1599051a39fc4513c9c86ef74cda1b8]
link <b>EngineerCourses</b> to styled-components--><path d="M400.037,1671.35 C415.749,1643.22 446.569,1583.65 459,1528.83 C487.883,1401.47 446.099,452.42 534,355.83 C590.304,293.96 633.04,318.59 716,307.83 C734.263,305.46 744.387,306.78 755,321.83 C774.818,349.94 747.227,1532.42 768,1559.83 C773.073,1566.52 779.774,1571.57 787.23,1575.36 " fill="none" id="&lt;b&gt;EngineerCourses&lt;/b&gt;-&gt;styled-components" style="stroke: #000000; stroke-width: 1.0;"/><polygon fill="#000000" points="791.962,1577.56,785.4934,1570.1332,787.4298,1575.4483,782.1147,1577.3847,791.962,1577.56" style="stroke: #000000; stroke-width: 1.0;"/><!--MD5=[f29fb88adc40c6d6d874259e7f93addc]
link <b>EngineerView</b> to axios--><path d="M623.769,1898.86 C640.758,1883.21 666.62,1856.17 679,1826.83 C709.493,1754.57 657.706,1528.3 716,1475.83 C728.883,1464.23 742.328,1464 755,1475.83 C785.616,1504.4 741.739,1631.21 768,1663.83 C782.085,1681.33 807.255,1687.47 827.243,1689.45 " fill="none" id="&lt;b&gt;EngineerView&lt;/b&gt;-&gt;axios" style="stroke: #000000; stroke-width: 1.0;"/><polygon fill="#000000" points="832.466,1689.88,823.8281,1685.1485,827.4832,1689.466,823.1657,1693.121,832.466,1689.88" style="stroke: #000000; stroke-width: 1.0;"/><!--MD5=[ca23b1dbb5357c4691de0616da623752]
link <b>EngineerView</b> to bootstrap--><path d="M636.339,1925.39 C669.239,1937.54 722.654,1950.32 755,1921.83 C789.297,1891.63 738.327,1854.59 768,1819.83 C779.556,1806.3 797.731,1799.6 814.652,1796.37 " fill="none" id="&lt;b&gt;EngineerView&lt;/b&gt;-&gt;bootstrap" style="stroke: #000000; stroke-width: 1.0;"/><polygon fill="#000000" points="819.855,1795.47,810.3061,1793.0578,814.9277,1796.3198,811.6658,1800.9414,819.855,1795.47" style="stroke: #000000; stroke-width: 1.0;"/><!--MD5=[0c6e3d37585e195a6fe102a429914e40]
link <b>EngineerView</b> to react--><path d="M663.915,1916.78 C695.21,1915.71 732.285,1908.5 755,1883.83 C790.139,1845.67 734.615,1807.54 768,1767.83 C782.644,1750.41 808.255,1744.3 828.254,1742.32 " fill="none" id="&lt;b&gt;EngineerView&lt;/b&gt;-&gt;react" style="stroke: #000000; stroke-width: 1.0;"/><polygon fill="#000000" points="833.47,1741.89,824.1678,1738.6543,828.4874,1742.3069,824.8348,1746.6265,833.47,1741.89" style="stroke: #000000; stroke-width: 1.0;"/><!--MD5=[693caa7c3e2e6c2fef300cd401bec450]
link <b>EngineerView</b> to react-bootstrap--><path d="M620.612,1927.05 C637.235,1945.98 665.367,1981.23 679,2016.83 C726.493,2140.86 659.693,2398.33 755,2305.83 C789.62,2272.23 738.487,1909.99 768,1871.83 C775.41,1862.25 786.154,1856.05 797.631,1852.08 " fill="none" id="&lt;b&gt;EngineerView&lt;/b&gt;-&gt;react-bootstrap" style="stroke: #000000; stroke-width: 1.0;"/><polygon fill="#000000" points="802.587,1850.51,792.7996,1849.4119,797.82,1852.0186,795.2133,1857.0391,802.587,1850.51" style="stroke: #000000; stroke-width: 1.0;"/><!--MD5=[9aedd9b8ed92bfe66b41ecabfdc9ea82]
link <b>EngineerView</b> to react-router-dom--><path d="M624.437,1898.72 C641.726,1883.15 667.594,1856.35 679,1826.83 C712.868,1739.17 648.109,1046.81 716,981.83 C728.522,969.85 742.618,969.7 755,981.83 C780.008,1006.33 746.714,1584.04 768,1611.83 C774.477,1620.29 783.552,1626.11 793.449,1630.09 " fill="none" id="&lt;b&gt;EngineerView&lt;/b&gt;-&gt;react-router-dom" style="stroke: #000000; stroke-width: 1.0;"/><polygon fill="#000000" points="798.366,1631.91,791.2999,1625.0493,793.6733,1630.1841,788.5385,1632.5576,798.366,1631.91" style="stroke: #000000; stroke-width: 1.0;"/><!--MD5=[769b37a2240441317e8503cbf6c114b0]
link HRClasses to axios--><path d="M395.058,1939.8 C407.358,1904.13 441.48,1801.67 459,1713.83 C487.88,1569.05 484.802,1530.96 497,1383.83 C500.346,1343.47 505.898,684.99 534,655.83 C590.656,597.04 649.476,593.94 717,639.83 C754.952,665.63 746.088,690.82 755,735.83 C760.007,761.12 752.392,1643.31 768,1663.83 C781.656,1681.78 807.027,1687.87 827.198,1689.71 " fill="none" id="HRClasses-&gt;axios" style="stroke: #000000; stroke-width: 0.5;"/><polygon fill="#000000" points="832.203,1690.09,823.5317,1685.4201,827.2174,1689.7114,822.926,1693.3971,832.203,1690.09" style="stroke: #000000; stroke-width: 0.5;"/><!--MD5=[5e347456865d4fbf47199c23f3850bcd]
link HRClasses to bootstrap--><path d="M405.594,1965.28 C431.31,1986.28 485.544,2029.7 534,2062.83 C596.228,2105.38 637.209,2088.09 679,2150.83 C709.543,2196.69 662.76,2405.5 717,2395.83 C734.719,2392.67 744.535,2396.47 755,2381.83 C791.316,2331.01 729.959,1869.37 768,1819.83 C778.928,1805.6 797.214,1798.83 814.377,1795.73 " fill="none" id="HRClasses-&gt;bootstrap" style="stroke: #000000; stroke-width: 0.5;"/><polygon fill="#000000" points="819.658,1794.88,810.1374,1792.3586,814.7213,1795.6733,811.4066,1800.2573,819.658,1794.88" style="stroke: #000000; stroke-width: 0.5;"/><!--MD5=[cda904732b093677d3f5bfe69c7eb3e6]
link HRClasses to ClassesContainer--><path d="M407.731,1940.73 C445.571,1914.15 536.076,1850.59 580.306,1819.53 " fill="none" id="HRClasses-&gt;ClassesContainer" style="stroke: #000000; stroke-width: 0.5;"/><polygon fill="#000000" points="584.438,1816.62,574.7751,1818.5246,580.3479,1819.4959,579.3766,1825.0688,584.438,1816.62" style="stroke: #000000; stroke-width: 0.5;"/><!--MD5=[535b4c0835a2c2c23373d9ab5bf1aaf0]
link HRClasses to react--><path d="M415.118,1941.99 C443.691,1929.41 492.236,1908.07 534,1889.83 C598.391,1861.71 617.258,1860.37 679,1826.83 C720.702,1804.18 724.958,1787.82 768,1767.83 C787.35,1758.84 810.52,1752.19 828.367,1747.87 " fill="none" id="HRClasses-&gt;react" style="stroke: #000000; stroke-width: 0.5;"/><polygon fill="#000000" points="833.253,1746.71,823.5737,1744.8902,828.3874,1747.8615,825.4161,1752.6751,833.253,1746.71" style="stroke: #000000; stroke-width: 0.5;"/><!--MD5=[a81b546ca1a1f764fa7cc34e813d0d38]
link HRClasses to react-bootstrap--><path d="M392.115,1965.89 C399.974,2026.16 437.825,2282.41 534,2466.83 C580.863,2556.696 640.237,2549.187 679,2642.831 C745.708,2803.983 630.98,3150.464 755,3027.831 C777.835,3005.252 748.593,1897.42 768,1871.83 C775.405,1862.07 786.276,1855.81 797.897,1851.84 " fill="none" id="HRClasses-&gt;react-bootstrap" style="stroke: #000000; stroke-width: 0.5;"/><polygon fill="#000000" points="802.915,1850.28,793.1331,1849.1336,798.1406,1851.765,795.5092,1856.7726,802.915,1850.28" style="stroke: #000000; stroke-width: 0.5;"/><!--MD5=[1d915e060a831a6e2a627510bec5a860]
link HRClasses to react-router-dom--><path d="M395.277,1939.85 C408.13,1904.28 443.518,1802.05 459,1713.83 C480.099,1593.61 444.791,701.14 534,617.83 C581.099,573.85 620.699,590.37 679,617.83 C752.042,652.23 741.947,703.15 755,782.83 C758.723,805.56 754.042,1593.51 768,1611.83 C774.456,1620.3 783.521,1626.13 793.414,1630.12 " fill="none" id="HRClasses-&gt;react-router-dom" style="stroke: #000000; stroke-width: 0.5;"/><polygon fill="#000000" points="798.33,1631.93,791.2725,1625.0604,793.6395,1630.1982,788.5016,1632.5652,798.33,1631.93" style="stroke: #000000; stroke-width: 0.5;"/><!--MD5=[52fc5d6ecb8aaf84c2efc7457f39000f]
link HRCourses to axios--><path d="M629.94,1364.39 C662.225,1349.74 721.564,1329.8 755,1361.83 C779.255,1385.06 747.28,1637.4 768,1663.83 C781.915,1681.58 807.262,1687.69 827.357,1689.58 " fill="none" id="HRCourses-&gt;axios" style="stroke: #000000; stroke-width: 0.5;"/><polygon fill="#000000" points="832.342,1689.98,823.6854,1685.2829,827.3576,1689.5858,823.0547,1693.258,832.342,1689.98" style="stroke: #000000; stroke-width: 0.5;"/><!--MD5=[47125572c30a88b3197088cc480547e1]
link HRCourses to bootstrap--><path d="M610.581,1389.09 C621.253,1433.73 659.125,1582.05 716,1693.83 C734.229,1729.66 735.314,1744.43 768,1767.83 C781.642,1777.6 798.927,1783.72 814.627,1787.55 " fill="none" id="HRCourses-&gt;bootstrap" style="stroke: #000000; stroke-width: 0.5;"/><polygon fill="#000000" points="819.884,1788.76,812.014,1782.8385,815.0121,1787.6356,810.215,1790.6336,819.884,1788.76" style="stroke: #000000; stroke-width: 0.5;"/><!--MD5=[6bdffae4167244f49c24f95e17395d56]
link HRCourses to react--><path d="M619.775,1388.5 C649.135,1419.68 723.32,1503.88 755,1589.83 C764.735,1616.24 749.981,1694.21 768,1715.83 C782.567,1733.31 808.186,1739.42 828.208,1741.38 " fill="none" id="HRCourses-&gt;react" style="stroke: #000000; stroke-width: 0.5;"/><polygon fill="#000000" points="833.43,1741.81,824.7895,1737.0834,828.4469,1741.3988,824.1315,1745.0563,833.43,1741.81" style="stroke: #000000; stroke-width: 0.5;"/><!--MD5=[7a46a2c049dc285bd9091145ba62ed8d]
link HRCourses to react-bootstrap--><path d="M610.259,1388.95 C620.723,1439.16 658.412,1623.96 679,1777.83 C693.492,1886.14 661.042,2206.38 754,2263.83 C772.537,2275.29 754.642,1889.05 768,1871.83 C775.425,1862.26 786.175,1856.07 797.654,1852.1 " fill="none" id="HRCourses-&gt;react-bootstrap" style="stroke: #000000; stroke-width: 0.5;"/><polygon fill="#000000" points="802.61,1850.53,792.8226,1849.4319,797.843,1852.0386,795.2363,1857.0591,802.61,1850.53" style="stroke: #000000; stroke-width: 0.5;"/><!--MD5=[a3bb7f0ceefed16ab99b9f185573289f]
link HRCourses to react-router-dom--><path d="M629.011,1364.16 C645.735,1353.82 667.897,1337.09 679,1315.83 C764.796,1151.56 622.754,776 755,905.83 C782.993,933.31 744.181,1580.66 768,1611.83 C774.467,1620.29 783.538,1626.12 793.434,1630.11 " fill="none" id="HRCourses-&gt;react-router-dom" style="stroke: #000000; stroke-width: 0.5;"/><polygon fill="#000000" points="798.35,1631.92,791.2925,1625.0504,793.6595,1630.1882,788.5216,1632.5552,798.35,1631.92" style="stroke: #000000; stroke-width: 0.5;"/><!--MD5=[78c2baa4b4bfcd3b8bb65f73df3fdbc8]
link HRCreateClass to axios--><path d="M620.553,2026.18 C637.389,2007.63 666.044,1972.65 679,1936.83 C711.092,1848.1 646.432,1577.58 716,1513.83 C728.779,1502.12 742.225,1502.12 755,1513.83 C779.659,1536.45 746.793,1637.95 768,1663.83 C782.143,1681.09 807.063,1687.28 826.943,1689.33 " fill="none" id="HRCreateClass-&gt;axios" style="stroke: #000000; stroke-width: 0.5;"/><polygon fill="#000000" points="832.141,1689.79,823.5246,1685.0195,827.1601,1689.3535,822.8261,1692.9889,832.141,1689.79" style="stroke: #000000; stroke-width: 0.5;"/><!--MD5=[a2e60d378b6204027294c28ef696ed37]
link HRCreateClass to bootstrap--><path d="M629.449,2052.93 C645.954,2064.04 667.608,2081.53 679,2102.83 C738.803,2214.65 664.298,2466.44 755,2377.83 C777.18,2356.16 749.113,1844.42 768,1819.83 C778.929,1805.6 797.215,1798.83 814.378,1795.73 " fill="none" id="HRCreateClass-&gt;bootstrap" style="stroke: #000000; stroke-width: 0.5;"/><polygon fill="#000000" points="819.659,1794.88,810.1384,1792.3586,814.7223,1795.6733,811.4076,1800.2573,819.659,1794.88" style="stroke: #000000; stroke-width: 0.5;"/><!--MD5=[9e73c8f79233eda05ec68b3e9095dde9]
link HRCreateClass to react--><path d="M648.835,2029.99 C683.95,2019.21 732.178,1998.12 755,1959.83 C776.896,1923.1 741.207,1801.16 768,1767.83 C782.318,1750.02 808.127,1743.97 828.278,1742.11 " fill="none" id="HRCreateClass-&gt;react" style="stroke: #000000; stroke-width: 0.5;"/><polygon fill="#000000" points="833.269,1741.72,823.9873,1738.4261,828.2839,1742.1057,824.6043,1746.4023,833.269,1741.72" style="stroke: #000000; stroke-width: 0.5;"/><!--MD5=[b407b601148f98d27e34334a6b899903]
link HRCreateClass to react-bootstrap--><path d="M629.544,2052.88 C646.102,2063.96 667.78,2081.44 679,2102.83 C711.547,2164.88 659.703,2456.16 717,2415.83 C757.926,2387.03 745.698,2359.01 755,2309.83 C759.525,2285.91 753.11,1891.09 768,1871.83 C775.409,1862.25 786.152,1856.05 797.629,1852.08 " fill="none" id="HRCreateClass-&gt;react-bootstrap" style="stroke: #000000; stroke-width: 0.5;"/><polygon fill="#000000" points="802.585,1850.51,792.7976,1849.4119,797.818,1852.0186,795.2113,1857.0391,802.585,1850.51" style="stroke: #000000; stroke-width: 0.5;"/><!--MD5=[8c0595f36323662f55cc8cd392d7d5a7]
link HRCreateClass to react-router-dom--><path d="M621.101,2025.95 C638.254,2007.42 666.957,1972.74 679,1936.83 C711.422,1840.15 642.456,1090.47 716,1019.83 C728.501,1007.82 742.61,1007.71 755,1019.83 C778.516,1042.84 747.98,1585.73 768,1611.83 C774.482,1620.28 783.56,1626.1 793.458,1630.09 " fill="none" id="HRCreateClass-&gt;react-router-dom" style="stroke: #000000; stroke-width: 0.5;"/><polygon fill="#000000" points="798.375,1631.9,791.3156,1625.0323,793.684,1630.1695,788.5468,1632.5379,798.375,1631.9" style="stroke: #000000; stroke-width: 0.5;"/><!--MD5=[9db02ec23f7a24d632ae096b4a916887]
link HRCreateCourse to axios--><path d="M639.299,709 C663.74,701.47 696.661,696.75 717,715.83 C765.469,761.31 751.659,1246.45 755,1312.83 C755.981,1332.32 756.008,1648.44 768,1663.83 C781.862,1681.63 807.214,1687.73 827.324,1689.61 " fill="none" id="HRCreateCourse-&gt;axios" style="stroke: #000000; stroke-width: 0.5;"/><polygon fill="#000000" points="832.314,1690,823.6557,1685.3059,827.3294,1689.6075,823.0278,1693.2812,832.314,1690" style="stroke: #000000; stroke-width: 0.5;"/><!--MD5=[1433d95af68f147a8b83eccba3dd66b3]
link HRCreateCourse to bootstrap--><path d="M612.6,736.99 C625.511,775.88 659.827,882.6 679,973.83 C739.18,1260.2 726.913,1336.56 755,1627.83 C757.999,1658.93 748.122,1743.73 768,1767.83 C779.323,1781.56 797.466,1788.28 814.427,1791.49 " fill="none" id="HRCreateCourse-&gt;bootstrap" style="stroke: #000000; stroke-width: 0.5;"/><polygon fill="#000000" points="819.643,1792.37,811.4399,1786.9194,814.7136,1791.5327,810.1003,1794.8064,819.643,1792.37" style="stroke: #000000; stroke-width: 0.5;"/><!--MD5=[be7a69a9e4ad9f81b39fba74bc8d92e4]
link HRCreateCourse to react--><path d="M613.421,736.98 C636.912,797.93 723.777,1031.64 755,1232.83 C759.116,1259.36 751.611,1694.57 768,1715.83 C782.043,1734.05 808.137,1740.03 828.455,1741.76 " fill="none" id="HRCreateCourse-&gt;react" style="stroke: #000000; stroke-width: 0.5;"/><polygon fill="#000000" points="833.485,1742.11,824.7872,1737.4896,828.4973,1741.7599,824.227,1745.4699,833.485,1742.11" style="stroke: #000000; stroke-width: 0.5;"/><!--MD5=[c2da4182e7edd1f025269346fcc6bc5c]
link HRCreateCourse to react-bootstrap--><path d="M612.779,736.95 C626.112,775.76 661.335,882.29 679,973.83 C687.955,1020.23 737.711,1783.55 768,1819.83 C775.673,1829.02 786.4,1835.07 797.759,1839.02 " fill="none" id="HRCreateCourse-&gt;react-bootstrap" style="stroke: #000000; stroke-width: 0.5;"/><polygon fill="#000000" points="802.658,1840.59,795.3021,1834.0409,797.8951,1839.0684,792.8676,1841.6615,802.658,1840.59" style="stroke: #000000; stroke-width: 0.5;"/><!--MD5=[82eb9280d0397a440d557574eb3f6cfd]
link HRCreateCourse to react-router-dom--><path d="M622.409,707.03 C644.934,686.46 688.077,654.3 717,677.83 C781.433,730.26 745.796,778.27 755,860.83 C757.312,881.57 755.341,1595.25 768,1611.83 C774.463,1620.3 783.531,1626.13 793.426,1630.11 " fill="none" id="HRCreateCourse-&gt;react-router-dom" style="stroke: #000000; stroke-width: 0.5;"/><polygon fill="#000000" points="798.342,1631.92,791.2777,1625.0574,793.6498,1630.1929,788.5143,1632.5649,798.342,1631.92" style="stroke: #000000; stroke-width: 0.5;"/><!--MD5=[2d193a52558280e506a0e3270b6c3d03]
link HREditClass to axios--><path d="M614.658,1280.74 C632.115,1250.46 678.283,1180.39 717,1209.83 C767.298,1248.08 745.196,1284.41 755,1346.83 C760.469,1381.66 746.281,1636.06 768,1663.83 C781.897,1681.6 807.245,1687.7 827.346,1689.59 " fill="none" id="HREditClass-&gt;axios" style="stroke: #000000; stroke-width: 0.5;"/><polygon fill="#000000" points="832.333,1689.99,823.6764,1685.2929,827.3486,1689.5958,823.0457,1693.268,832.333,1689.99" style="stroke: #000000; stroke-width: 0.5;"/><!--MD5=[0ca5629d348a6e1f2a718b16a6e3967b]
link HREditClass to bootstrap--><path d="M628.733,1305.66 C645.296,1316.08 667.377,1332.85 679,1353.83 C736.419,1457.47 688.243,1502.65 716,1617.83 C720.133,1634.98 755.222,1755.67 768,1767.83 C780.575,1779.8 798.35,1786.3 814.711,1789.81 " fill="none" id="HREditClass-&gt;bootstrap" style="stroke: #000000; stroke-width: 0.5;"/><polygon fill="#000000" points="819.736,1790.81,811.6889,1785.1317,814.832,1789.8349,810.1287,1792.9781,819.736,1790.81" style="stroke: #000000; stroke-width: 0.5;"/><!--MD5=[b102c019655277a6b60d53b6c3fd17b4]
link HREditClass to react--><path d="M627.052,1305.86 C643.066,1316.63 665.25,1333.79 679,1353.83 C737.992,1439.83 733.136,1473.86 755,1575.83 C761.55,1606.38 748.122,1691.73 768,1715.83 C782.478,1733.39 808.106,1739.48 828.154,1741.42 " fill="none" id="HREditClass-&gt;react" style="stroke: #000000; stroke-width: 0.5;"/><polygon fill="#000000" points="833.383,1741.85,824.7371,1737.1332,828.3995,1741.4445,824.0882,1745.1069,833.383,1741.85" style="stroke: #000000; stroke-width: 0.5;"/><!--MD5=[59589ad75de8ea958081400425c4019f]
link HREditClass to react-bootstrap--><path d="M629.035,1305.49 C645.772,1315.82 667.942,1332.55 679,1353.83 C768.677,1526.42 610.701,2094.33 754,2225.83 C783.003,2252.45 743.814,1902.89 768,1871.83 C775.442,1862.27 786.2,1856.09 797.679,1852.12 " fill="none" id="HREditClass-&gt;react-bootstrap" style="stroke: #000000; stroke-width: 0.5;"/><polygon fill="#000000" points="802.636,1850.55,792.8489,1849.4492,797.8686,1852.0573,795.2605,1857.077,802.636,1850.55" style="stroke: #000000; stroke-width: 0.5;"/><!--MD5=[bc5382a122f657d0123a63b38d1d3035]
link HREditClass to react-router-dom--><path d="M610.999,1280.64 C621.508,1240.95 653.629,1119.14 679,1017.83 C696.021,949.86 650.25,843.53 717,864.83 C736.738,871.13 745.331,873.51 755,891.83 C773.671,927.21 743.715,1580.04 768,1611.83 C774.466,1620.3 783.536,1626.12 793.431,1630.11 " fill="none" id="HREditClass-&gt;react-router-dom" style="stroke: #000000; stroke-width: 0.5;"/><polygon fill="#000000" points="798.347,1631.92,791.2876,1625.0523,793.656,1630.1895,788.5188,1632.5579,798.347,1631.92" style="stroke: #000000; stroke-width: 0.5;"/><!--MD5=[a34f4012d236a79505caeaf200e206fa]
link HREditCourse to axios--><path d="M619.488,2159.45 C636.227,2139.86 666.007,2101.48 679,2062.83 C697.141,2008.87 674.319,1590.6 716,1551.83 C728.691,1540.03 742.056,1540.3 755,1551.83 C773.711,1568.5 751.838,1644.68 768,1663.83 C782.392,1680.88 807.292,1687.09 827.1,1689.2 " fill="none" id="HREditCourse-&gt;axios" style="stroke: #000000; stroke-width: 0.5;"/><polygon fill="#000000" points="832.278,1689.67,823.6767,1684.8723,827.2985,1689.2177,822.9531,1692.8395,832.278,1689.67" style="stroke: #000000; stroke-width: 0.5;"/><!--MD5=[331cbdef7b427358299c8ea652db5c7e]
link HREditCourse to bootstrap--><path d="M640.784,2183.65 C654.836,2189.94 669.999,2199.34 679,2212.83 C759.421,2333.34 651.62,2631.336 755,2529.831 C783.15,2502.19 744.048,1851.18 768,1819.83 C778.894,1805.57 797.175,1798.8 814.344,1795.7 " fill="none" id="HREditCourse-&gt;bootstrap" style="stroke: #000000; stroke-width: 0.5;"/><polygon fill="#000000" points="819.628,1794.85,810.1062,1792.3329,814.6917,1795.6455,811.3791,1800.231,819.628,1794.85" style="stroke: #000000; stroke-width: 0.5;"/><!--MD5=[70454ee3a9c598e19ca020450f1abb2c]
link HREditCourse to react--><path d="M620.875,2159.76 C651.271,2129.08 725.212,2048.68 755,1964.83 C769.687,1923.49 740.542,1802.05 768,1767.83 C782.303,1750.01 808.113,1743.96 828.269,1742.1 " fill="none" id="HREditCourse-&gt;react" style="stroke: #000000; stroke-width: 0.5;"/><polygon fill="#000000" points="833.261,1741.72,823.9793,1738.4261,828.2759,1742.1057,824.5963,1746.4023,833.261,1741.72" style="stroke: #000000; stroke-width: 0.5;"/><!--MD5=[2d55afc50ad6062f995842f18bc16ac0]
link HREditCourse to react-bootstrap--><path d="M640.861,2183.6 C654.929,2189.87 670.083,2199.29 679,2212.83 C767.734,2347.59 639.846,2680.854 755,2567.831 C782.6,2540.741 744.515,1902.56 768,1871.83 C775.442,1862.1 786.327,1855.85 797.951,1851.88 " fill="none" id="HREditCourse-&gt;react-bootstrap" style="stroke: #000000; stroke-width: 0.5;"/><polygon fill="#000000" points="802.969,1850.32,793.1871,1849.1736,798.1946,1851.805,795.5632,1856.8126,802.969,1850.32" style="stroke: #000000; stroke-width: 0.5;"/><!--MD5=[159a08f39e19d5887a1cf4a7c92f9713]
link HREditCourse to react-router-dom--><path d="M619.675,2159.51 C636.641,2139.99 666.695,2101.7 679,2062.83 C695.862,2009.57 675.773,1096.6 716,1057.83 C728.48,1045.8 742.601,1045.72 755,1057.83 C777.023,1079.34 749.246,1587.42 768,1611.83 C774.489,1620.28 783.57,1626.1 793.469,1630.08 " fill="none" id="HREditCourse-&gt;react-router-dom" style="stroke: #000000; stroke-width: 0.5;"/><polygon fill="#000000" points="798.386,1631.89,791.3248,1625.0242,793.6946,1630.1607,788.558,1632.5305,798.386,1631.89" style="stroke: #000000; stroke-width: 0.5;"/><!--MD5=[9f38a329ec664c790bf6190bd2bbf571]
link HREnrol to axios--><path d="M615.721,1008.44 C635.539,1039.28 686.551,1121.46 717,1195.83 C740.456,1253.12 745.283,1268.69 755,1329.83 C760.829,1366.51 745.149,1634.55 768,1663.83 C781.878,1681.61 807.229,1687.72 827.334,1689.6 " fill="none" id="HREnrol-&gt;axios" style="stroke: #000000; stroke-width: 0.5;"/><polygon fill="#000000" points="832.323,1689.99,823.6637,1685.2978,827.3383,1689.5987,823.0375,1693.2733,832.323,1689.99" style="stroke: #000000; stroke-width: 0.5;"/><!--MD5=[4d19097753322d2d2fe57a36225588b4]
link HREnrol to bootstrap--><path d="M611.281,1008.96 C622.575,1048.47 656.665,1169.81 679,1271.83 C684.987,1299.18 749.288,1747.01 768,1767.83 C779.798,1780.96 797.819,1787.61 814.566,1790.93 " fill="none" id="HREnrol-&gt;bootstrap" style="stroke: #000000; stroke-width: 0.5;"/><polygon fill="#000000" points="819.715,1791.85,811.5657,1786.3193,814.794,1790.9645,810.1489,1794.1929,819.715,1791.85" style="stroke: #000000; stroke-width: 0.5;"/><!--MD5=[762888177c121d775ac7a6816229f24a]
link HREnrol to react--><path d="M615.374,1008.43 C644.849,1055.7 747.366,1221.15 755,1247.83 C762.155,1272.84 752.111,1695.24 768,1715.83 C782.051,1734.04 808.144,1740.02 828.459,1741.75 " fill="none" id="HREnrol-&gt;react" style="stroke: #000000; stroke-width: 0.5;"/><polygon fill="#000000" points="833.489,1742.11,824.7925,1737.4871,828.5014,1741.7584,824.23,1745.4673,833.489,1742.11" style="stroke: #000000; stroke-width: 0.5;"/><!--MD5=[1057117ec38b6bddb867a0e0a8100b2e]
link HREnrol to react-bootstrap--><path d="M611.394,1008.94 C623.005,1048.37 657.889,1169.55 679,1271.83 C728.877,1513.48 604.07,1635.41 768,1819.83 C775.86,1828.67 786.544,1834.58 797.781,1838.51 " fill="none" id="HREnrol-&gt;react-bootstrap" style="stroke: #000000; stroke-width: 0.5;"/><polygon fill="#000000" points="802.624,1840.08,795.2859,1833.511,797.8653,1838.5455,792.8307,1841.1249,802.624,1840.08" style="stroke: #000000; stroke-width: 0.5;"/><!--MD5=[68964350387dba19489434541e59a08a]
link HREnrol to react-router-dom--><path d="M608.901,982.72 C615.013,930.65 642.461,743.51 717,791.83 C751.722,814.34 746.008,836.44 755,876.83 C763.874,916.69 743.215,1579.37 768,1611.83 C774.464,1620.3 783.533,1626.12 793.428,1630.11 " fill="none" id="HREnrol-&gt;react-router-dom" style="stroke: #000000; stroke-width: 0.5;"/><polygon fill="#000000" points="798.345,1631.92,791.2875,1625.0504,793.6545,1630.1882,788.5166,1632.5552,798.345,1631.92" style="stroke: #000000; stroke-width: 0.5;"/><!--MD5=[abb31a54ba6e080bfea9c2768466c12b]
link HREnrolClasses to axios--><path d="M642.215,2223.87 C655.663,2217.55 669.966,2208.43 679,2195.83 C742.213,2107.67 695.255,1796.31 768,1715.83 C782.8,1699.46 807.276,1693.16 826.818,1690.85 " fill="none" id="HREnrolClasses-&gt;axios" style="stroke: #000000; stroke-width: 0.5;"/><polygon fill="#000000" points="832.187,1690.3,822.8249,1687.242,827.2132,1690.8117,823.6436,1695.2,832.187,1690.3" style="stroke: #000000; stroke-width: 0.5;"/><!--MD5=[a57750d269aa5e5589a2f61653fba4f7]
link HREnrolClasses to bootstrap--><path d="M644.363,2247.41 C657.293,2253.3 670.657,2261.83 679,2273.83 C750.129,2376.19 622.229,2469.71 716,2551.831 C730.362,2564.408 744.645,2549.869 755,2533.831 C776.52,2500.5 743.915,1851.36 768,1819.83 C778.893,1805.57 797.174,1798.8 814.344,1795.7 " fill="none" id="HREnrolClasses-&gt;bootstrap" style="stroke: #000000; stroke-width: 0.5;"/><polygon fill="#000000" points="819.627,1794.85,810.1059,1792.3302,814.6905,1795.6441,811.3766,1800.2287,819.627,1794.85" style="stroke: #000000; stroke-width: 0.5;"/><!--MD5=[64d7b1d2f56e05eeed4b91465a2249fa]
link HREnrolClasses to react--><path d="M640.659,2223.59 C654.175,2217.15 668.951,2208.01 679,2195.83 C712.366,2155.4 699.226,2133.5 716,2083.83 C733,2033.5 744.542,2022.92 755,1970.83 C759.449,1948.67 753.872,1785.47 768,1767.83 C782.285,1749.99 808.098,1743.94 828.259,1742.09 " fill="none" id="HREnrolClasses-&gt;react" style="stroke: #000000; stroke-width: 0.5;"/><polygon fill="#000000" points="833.252,1741.71,823.9722,1738.4108,828.2667,1742.0928,824.5847,1746.3873,833.252,1741.71" style="stroke: #000000; stroke-width: 0.5;"/><!--MD5=[84e47f780f0c12bdebfda7b2361d9c33]
link HREnrolClasses to react-bootstrap--><path d="M625.842,2249.61 C642.685,2263.37 666.817,2286.13 679,2311.83 C706.074,2368.94 668.49,2552.148 716,2593.831 C730.959,2606.956 744.9,2588.979 755,2571.831 C774.74,2538.317 744.381,1902.73 768,1871.83 C775.441,1862.09 786.326,1855.85 797.95,1851.88 " fill="none" id="HREnrolClasses-&gt;react-bootstrap" style="stroke: #000000; stroke-width: 0.5;"/><polygon fill="#000000" points="802.969,1850.32,793.1871,1849.1736,798.1946,1851.805,795.5632,1856.8126,802.969,1850.32" style="stroke: #000000; stroke-width: 0.5;"/><!--MD5=[32b29fcafe67f658cdecf1405aede2d6]
link HREnrolClasses to react-router-dom--><path d="M642.381,2223.99 C655.855,2217.69 670.133,2208.55 679,2195.83 C747.552,2097.5 685.274,1750.57 768,1663.83 C775.065,1656.42 784.112,1651.09 793.72,1647.26 " fill="none" id="HREnrolClasses-&gt;react-router-dom" style="stroke: #000000; stroke-width: 0.5;"/><polygon fill="#000000" points="798.476,1645.5,788.6468,1644.878,793.7878,1647.2381,791.4277,1652.3791,798.476,1645.5" style="stroke: #000000; stroke-width: 0.5;"/><!--MD5=[5815683229fecbc567c9f5c57b2eaf2a]
link HRHome to bootstrap--><path d="M639.775,2670.933 C673.982,2675.317 726.861,2675.748 755,2643.831 C785.277,2609.489 740.25,1856.25 768,1819.83 C778.876,1805.56 797.154,1798.79 814.327,1795.69 " fill="none" id="HRHome-&gt;bootstrap" style="stroke: #000000; stroke-width: 0.5;"/><polygon fill="#000000" points="819.612,1794.84,810.0921,1792.3159,814.6751,1795.6319,811.3591,1800.2149,819.612,1794.84" style="stroke: #000000; stroke-width: 0.5;"/><!--MD5=[f907e55806571d91bdbb969cd96f9fc2]
link HRHome to react-bootstrap--><path d="M619.875,2677.139 C636.504,2694.531 665.526,2728.074 679,2762.831 C734.498,2905.989 645.858,3207.824 755,3099.831 C779.249,3075.838 747.394,1899.02 768,1871.83 C775.402,1862.07 786.272,1855.81 797.892,1851.84 " fill="none" id="HRHome-&gt;react-bootstrap" style="stroke: #000000; stroke-width: 0.5;"/><polygon fill="#000000" points="802.911,1850.27,793.1278,1849.1346,798.1383,1851.7604,795.5125,1856.7709,802.911,1850.27" style="stroke: #000000; stroke-width: 0.5;"/><!--MD5=[ee228dad330afb39b877bce62bbd56d4]
link HRRouting to bootstrap--><path d="M237.525,2120.34 C254.263,2138.93 287.578,2174.38 320,2199.83 C467.558,2315.67 566.488,2271.72 679,2421.83 C716.055,2471.27 666.841,2518.41 716,2555.831 C731.045,2567.285 744.573,2554.605 755,2538.831 C777.031,2505.5 743.748,1851.58 768,1819.83 C778.892,1805.57 797.173,1798.8 814.343,1795.7 " fill="none" id="HRRouting-&gt;bootstrap" style="stroke: #000000; stroke-width: 0.5;"/><polygon fill="#000000" points="819.626,1794.85,810.1049,1792.3302,814.6895,1795.6441,811.3756,1800.2287,819.626,1794.85" style="stroke: #000000; stroke-width: 0.5;"/><!--MD5=[78ea3215c9feb9cdeac97e069320b379]
link HRRouting to HRClasses--><path d="M239.483,2095.41 C268.632,2067.52 339.251,1999.95 371.693,1968.91 " fill="none" id="HRRouting-&gt;HRClasses" style="stroke: #000000; stroke-width: 0.5;"/><polygon fill="#000000" points="375.455,1965.31,366.1863,1968.6404,371.8418,1968.7661,371.7161,1974.4216,375.455,1965.31" style="stroke: #000000; stroke-width: 0.5;"/><!--MD5=[a9c58bf6881479c192d89f2ed2e19bff]
link HRRouting to HRCourses--><path d="M226.712,2094.75 C228.274,2013.93 240.29,1582.61 320,1483.83 C378.299,1411.58 490.506,1387.64 555.539,1379.72 " fill="none" id="HRRouting-&gt;HRCourses" style="stroke: #000000; stroke-width: 0.5;"/><polygon fill="#000000" points="560.524,1379.14,551.1186,1376.2179,555.5582,1379.7236,552.0524,1384.1632,560.524,1379.14" style="stroke: #000000; stroke-width: 0.5;"/><!--MD5=[055fa87a79bf06c08c9d4761be383429]
link HRRouting to HRCreateClass--><path d="M263.53,2101.19 C331.604,2088.97 476.74,2062.93 554.235,2049.03 " fill="none" id="HRRouting-&gt;HRCreateClass" style="stroke: #000000; stroke-width: 0.5;"/><polygon fill="#000000" points="559.24,2048.13,549.6757,2045.7796,554.3183,2049.0116,551.0863,2053.6542,559.24,2048.13" style="stroke: #000000; stroke-width: 0.5;"/><!--MD5=[51c95e7afb7db9859cd7ac7d9a94e2d3]
link HRRouting to HRCreateCourse--><path d="M227.205,2094.71 C232.442,1999.26 266.552,1410.5 320,1240.83 C386.516,1029.68 543.05,806.65 591.172,741.03 " fill="none" id="HRRouting-&gt;HRCreateCourse" style="stroke: #000000; stroke-width: 0.5;"/><polygon fill="#000000" points="594.183,736.93,585.6216,741.7986,591.2151,740.9538,592.0598,746.5473,594.183,736.93" style="stroke: #000000; stroke-width: 0.5;"/><!--MD5=[6de7b9b170a8f7927996e15aba01606b]
link HRRouting to HREditClass--><path d="M226.667,2094.79 C227.98,2010.23 238.892,1539.57 320,1426.83 C376.723,1347.99 492.176,1314.53 557.553,1301.43 " fill="none" id="HRRouting-&gt;HREditClass" style="stroke: #000000; stroke-width: 0.5;"/><polygon fill="#000000" points="562.559,1300.44,552.9572,1298.2478,557.6526,1301.4027,554.4976,1306.0981,562.559,1300.44" style="stroke: #000000; stroke-width: 0.5;"/><!--MD5=[c132e40ec6e478e6276c237f3126f182]
link HRRouting to HREditCourse--><path d="M263.877,2114.24 C332.404,2125.99 478.177,2150.99 555.276,2164.22 " fill="none" id="HRRouting-&gt;HREditCourse" style="stroke: #000000; stroke-width: 0.5;"/><polygon fill="#000000" points="560.253,2165.07,552.0591,2159.6055,555.325,2164.2244,550.7062,2167.4903,560.253,2165.07" style="stroke: #000000; stroke-width: 0.5;"/><!--MD5=[6b2f3e169dfb48e904ab74012f377325]
link HRRouting to HREnrol--><path d="M227.208,2094.57 C232.06,2006.41 261.938,1504.12 320,1363.83 C385.249,1206.18 536.894,1058.41 588.187,1011.33 " fill="none" id="HRRouting-&gt;HREnrol" style="stroke: #000000; stroke-width: 0.5;"/><polygon fill="#000000" points="591.988,1007.86,582.6481,1010.985,588.2994,1011.2355,588.0489,1016.8868,591.988,1007.86" style="stroke: #000000; stroke-width: 0.5;"/><!--MD5=[4ba4359f199aa541d231ecdc9c076987]
link HRRouting to HREnrolClasses--><path d="M248.416,2118.98 C267.13,2128.25 294.919,2141.38 320,2150.83 C402.449,2181.88 501.595,2209.25 558.704,2224.08 " fill="none" id="HRRouting-&gt;HREnrolClasses" style="stroke: #000000; stroke-width: 0.5;"/><polygon fill="#000000" points="563.759,2225.39,556.0477,2219.2634,558.9184,2224.1377,554.044,2227.0084,563.759,2225.39" style="stroke: #000000; stroke-width: 0.5;"/><!--MD5=[e342e511ecc45a90aa1732515eb6170b]
link HRRouting to HRHome--><path d="M231.144,2120.81 C243.277,2153.97 277.92,2243.95 320,2311.83 C407.45,2452.9 544.21,2600.742 589.986,2648.761 " fill="none" id="HRRouting-&gt;HRHome" style="stroke: #000000; stroke-width: 0.5;"/><polygon fill="#000000" points="593.628,2652.571,590.3032,2643.3003,590.1741,2648.9557,584.5187,2648.8266,593.628,2652.571" style="stroke: #000000; stroke-width: 0.5;"/><!--MD5=[e75a6b1192dbacaf3212b1c0e7c222de]
link HRRouting to react-bootstrap--><path d="M226.815,2120.99 C230.563,2254.03 274.903,3346.798 717,3153.831 C738.044,3144.646 745.67,3139.811 755,3118.831 C769.076,3087.179 747.077,1899.44 768,1871.83 C775.401,1862.06 786.271,1855.81 797.891,1851.84 " fill="none" id="HRRouting-&gt;react-bootstrap" style="stroke: #000000; stroke-width: 0.5;"/><polygon fill="#000000" points="802.909,1850.27,793.1261,1849.1319,798.1359,1851.7591,795.5087,1856.7689,802.909,1850.27" style="stroke: #000000; stroke-width: 0.5;"/><!--MD5=[19fc30c430d99b18f1259ca76c4a0b13]
link HRRouting to react-router-dom--><path d="M226.702,2094.6 C229.212,1934.2 255.345,368.15 320,297.83 C373.433,239.72 417.054,273.83 496,273.83 C496,273.83 496,273.83 717,273.83 C736.975,273.83 745.271,280.38 755,297.83 C772.777,329.71 745.961,1582.73 768,1611.83 C774.431,1620.32 783.484,1626.16 793.374,1630.15 " fill="none" id="HRRouting-&gt;react-router-dom" style="stroke: #000000; stroke-width: 0.5;"/><polygon fill="#000000" points="798.288,1631.96,791.2237,1625.0974,793.5958,1630.2329,788.4603,1632.6049,798.288,1631.96" style="stroke: #000000; stroke-width: 0.5;"/><!--MD5=[83024727a3045ca4dddec7579bca93d6]
link HRRouting to UserNavbar--><path d="M227.872,2120.84 C234.563,2184.59 264.213,2470.3 283,2704.831 C288.015,2767.432 283.854,3217.474 320,3268.831 C374.942,3346.894 489.999,3376.267 556.049,3386.976 " fill="none" id="HRRouting-&gt;UserNavbar" style="stroke: #000000; stroke-width: 0.5;"/><polygon fill="#000000" points="561.109,3387.776,552.8432,3382.4209,556.1702,3386.996,551.5952,3390.323,561.109,3387.776" style="stroke: #000000; stroke-width: 0.5;"/><!--MD5=[f39319d2be27e673ece5aa4b202a2579]
link <b>src</b> to App--><path d="M68.5,1090.25 C68.5,1423.28 68.5,1756.31 68.5,2089.35 " fill="none" id="&lt;b&gt;src&lt;/b&gt;-&gt;App" style="stroke: #000000; stroke-width: 1.0;"/><polygon fill="#000000" points="68.5,2094.74,72.5,2085.74,68.5,2089.74,64.5,2085.74,68.5,2094.74" style="stroke: #000000; stroke-width: 1.0;"/><!--MD5=[a7c433e228a3e00c52264d39ed1ac923]
link <b>src</b> to react--><path d="M71.3733,1089.95 C85.9947,1190.58 184.851,1839.88 320,1974.83 C342.357,1997.15 356.906,1993.83 388.5,1993.83 C388.5,1993.83 388.5,1993.83 497,1993.83 C620.967,1993.83 689.885,1993.32 755,1887.83 C783.178,1842.18 733.554,1808.96 768,1767.83 C782.612,1750.39 808.226,1744.28 828.235,1742.31 " fill="none" id="&lt;b&gt;src&lt;/b&gt;-&gt;react" style="stroke: #000000; stroke-width: 1.0;"/><polygon fill="#000000" points="833.453,1741.87,824.1527,1738.629,828.4702,1742.284,824.8151,1746.6015,833.453,1741.87" style="stroke: #000000; stroke-width: 1.0;"/><!--MD5=[ce44ada2b58232cc0597854728dbbdbd]
link <b>src</b> to react-dom--><path d="M86.6478,1075.76 C101.0233,1073.87 120.79,1068.72 131,1054.83 C190.877,973.39 117.236,233.24 168,145.83 C226.059,45.86 272.89,7.83 388.5,7.83 C388.5,7.83 388.5,7.83 717,7.83 C736.975,7.83 744.77,14.67 755,31.83 C834.154,164.59 854.117,1334.43 856.694,1511.44 " fill="none" id="&lt;b&gt;src&lt;/b&gt;-&gt;react-dom" style="stroke: #000000; stroke-width: 1.0;"/><polygon fill="#000000" points="856.768,1516.61,860.639,1507.5538,856.6966,1511.6105,852.6398,1507.6681,856.768,1516.61" style="stroke: #000000; stroke-width: 1.0;"/><!--MD5=[5ca0a86e6b484e8379d607163bd7ed4b]
link <b>src</b> to react-router-dom--><path d="M86.4352,1075.6 C100.6743,1073.61 120.361,1068.39 131,1054.83 C180.232,992.08 151.305,775.82 168,697.83 C213.159,486.87 212.286,423.76 320,236.83 C342.869,197.14 342.696,159.83 388.5,159.83 C388.5,159.83 388.5,159.83 607.5,159.83 C688.75,159.83 727.135,191.51 755,267.83 C767.804,302.9 745.461,1582.07 768,1611.83 C774.43,1620.32 783.483,1626.16 793.372,1630.15 " fill="none" id="&lt;b&gt;src&lt;/b&gt;-&gt;react-router-dom" style="stroke: #000000; stroke-width: 1.0;"/><polygon fill="#000000" points="798.287,1631.97,791.2245,1625.1055,793.5952,1630.2416,788.4591,1632.6123,798.287,1631.97" style="stroke: #000000; stroke-width: 1.0;"/><!--MD5=[e6e98e530fac60ec4bf1683a6e006ba9]
link TrainerCourseCard to react-bootstrap--><path d="M612.801,397.04 C626.344,439.18 662.315,555.84 679,655.83 C684.337,687.82 747.573,1794.65 768,1819.83 C775.63,1829.24 786.465,1835.36 797.96,1839.32 " fill="none" id="TrainerCourseCard-&gt;react-bootstrap" style="stroke: #000000; stroke-width: 0.5;"/><polygon fill="#000000" points="802.92,1840.89,795.541,1834.367,798.1518,1839.3853,793.1335,1841.9961,802.92,1840.89" style="stroke: #000000; stroke-width: 0.5;"/><!--MD5=[9495586039032d1dcfc15730e7ac1bc2]
link TrainerCourseCard to react-router-dom--><path d="M652.41,369.13 C672.819,366 696.849,365.48 717,373.83 C739.066,382.97 745.74,389.81 755,411.83 C767.923,442.56 747.86,1585.27 768,1611.83 C774.435,1620.32 783.49,1626.16 793.381,1630.15 " fill="none" id="TrainerCourseCard-&gt;react-router-dom" style="stroke: #000000; stroke-width: 0.5;"/><polygon fill="#000000" points="798.295,1631.96,791.2393,1625.0885,793.6049,1630.227,788.4665,1632.5926,798.295,1631.96" style="stroke: #000000; stroke-width: 0.5;"/><!--MD5=[ce08565d25a0d43c882b8e1d6367560c]
link TrainerCourseCard to styled-components--><path d="M626.114,365.11 C657.112,340.86 719.411,300.62 755,335.83 C779.17,359.75 747.461,1532.73 768,1559.83 C773.073,1566.52 779.775,1571.57 787.231,1575.36 " fill="none" id="TrainerCourseCard-&gt;styled-components" style="stroke: #000000; stroke-width: 0.5;"/><polygon fill="#000000" points="791.963,1577.56,785.4855,1570.141,787.4283,1575.4538,782.1155,1577.3966,791.963,1577.56" style="stroke: #000000; stroke-width: 0.5;"/><!--MD5=[9b46b8b3fdad61b86581c0e685bb7c80]
link TrainerCreateQuiz to axios--><path d="M392.004,2734.283 C399.717,2654.274 435.383,2280.87 459,1974.83 C478.74,1719.04 481.794,1654.94 497,1398.83 C499.311,1359.9 505.706,724.67 534,697.83 C593.022,641.84 660.214,643.58 717,701.83 C791.379,778.13 749.345,1073.42 755,1179.83 C756.427,1206.69 751.578,1642.53 768,1663.83 C781.771,1681.7 807.131,1687.79 827.268,1689.65 " fill="none" id="TrainerCreateQuiz-&gt;axios" style="stroke: #000000; stroke-width: 0.5;"/><polygon fill="#000000" points="832.265,1690.04,823.6003,1685.3577,827.2799,1689.6543,822.9833,1693.3339,832.265,1690.04" style="stroke: #000000; stroke-width: 0.5;"/><!--MD5=[8de98742a3084618c9521833f61883fd]
link TrainerCreateQuiz to bootstrap--><path d="M454.932,2747.094 C497.634,2745.512 554.903,2743.831 605.5,2743.831 C605.5,2743.831 605.5,2743.831 717,2743.831 C736.975,2743.831 745.232,2737.255 755,2719.831 C779.453,2676.213 737.717,1859.62 768,1819.83 C778.866,1805.55 797.144,1798.78 814.318,1795.68 " fill="none" id="TrainerCreateQuiz-&gt;bootstrap" style="stroke: #000000; stroke-width: 0.5;"/><polygon fill="#000000" points="819.603,1794.83,810.0826,1792.3075,814.6662,1795.6227,811.351,1800.2063,819.603,1794.83" style="stroke: #000000; stroke-width: 0.5;"/><!--MD5=[ea45b47a1c6e4d4dee21e73a1008f004]
link TrainerCreateQuiz to react--><path d="M392.617,2734.235 C404.394,2647.069 462.547,2211.3 497,1853.83 C502.344,1798.38 493.181,1391.74 534,1353.83 C581.221,1309.98 626.568,1316.36 679,1353.83 C763.849,1414.47 733.136,1473.86 755,1575.83 C761.55,1606.38 748.122,1691.73 768,1715.83 C782.478,1733.39 808.106,1739.48 828.154,1741.42 " fill="none" id="TrainerCreateQuiz-&gt;react" style="stroke: #000000; stroke-width: 0.5;"/><polygon fill="#000000" points="833.383,1741.85,824.7371,1737.1332,828.3995,1741.4445,824.0882,1745.1069,833.383,1741.85" style="stroke: #000000; stroke-width: 0.5;"/><!--MD5=[8360880d25650077de405ea1463a5e4b]
link TrainerCreateQuiz to react-bootstrap--><path d="M397.563,2765.472 C438.544,2854.725 647.652,3289.553 755,3113.831 C772.986,3084.388 747.161,1899.33 768,1871.83 C775.402,1862.06 786.271,1855.81 797.891,1851.84 " fill="none" id="TrainerCreateQuiz-&gt;react-bootstrap" style="stroke: #000000; stroke-width: 0.5;"/><polygon fill="#000000" points="802.91,1850.27,793.1268,1849.1346,798.1373,1851.7604,795.5115,1856.7709,802.91,1850.27" style="stroke: #000000; stroke-width: 0.5;"/><!--MD5=[8789c72db086c7c41f439d4e118f5740]
link TrainerCreateQuiz to TrainerMCQQuestion--><path d="M420.219,2763.553 C449.074,2776.715 494.223,2796.887 534,2812.831 C542.483,2816.231 551.603,2819.693 560.396,2822.934 " fill="none" id="TrainerCreateQuiz-&gt;TrainerMCQQuestion" style="stroke: #000000; stroke-width: 0.5;"/><polygon fill="#000000" points="565.241,2824.71,558.1684,2817.8559,560.5467,2822.9886,555.4141,2825.3669,565.241,2824.71" style="stroke: #000000; stroke-width: 0.5;"/><!--MD5=[89fe1bee322d67a244aeaa50367ef47f]
link TrainerCreateQuiz to TrainerTFQuestion--><path d="M442.82,2759.078 C474.322,2764.646 514.498,2771.747 547.042,2777.499 " fill="none" id="TrainerCreateQuiz-&gt;TrainerTFQuestion" style="stroke: #000000; stroke-width: 0.5;"/><polygon fill="#000000" points="552.197,2778.41,544.0305,2772.9048,547.2733,2777.5399,542.6382,2780.7827,552.197,2778.41" style="stroke: #000000; stroke-width: 0.5;"/><!--MD5=[bf5d7907e6ab01c53ba1bc961ce8a735]
link TrainerHome to axios--><path d="M391.467,1492.02 C399.445,1380.02 456.088,623.3 534,563.83 C598.651,514.48 647.814,521.07 717,563.83 C749.125,583.69 746.09,603.13 755,639.83 C761.711,667.47 750.793,1641.18 768,1663.83 C781.644,1681.79 807.017,1687.88 827.19,1689.71 " fill="none" id="TrainerHome-&gt;axios" style="stroke: #000000; stroke-width: 0.5;"/><polygon fill="#000000" points="832.197,1690.09,823.5244,1685.4225,827.2112,1689.7129,822.9209,1693.3997,832.197,1690.09" style="stroke: #000000; stroke-width: 0.5;"/><!--MD5=[df0061a4144438bd86c5b634b2f4f8cb]
link TrainerHome to react--><path d="M409.766,1518.61 C464.054,1554.15 623.73,1655.52 768,1715.83 C787.684,1724.06 810.842,1730.74 828.601,1735.26 " fill="none" id="TrainerHome-&gt;react" style="stroke: #000000; stroke-width: 0.5;"/><polygon fill="#000000" points="833.459,1736.48,825.7054,1730.4069,828.6098,1735.2613,823.7555,1738.1656,833.459,1736.48" style="stroke: #000000; stroke-width: 0.5;"/><!--MD5=[ff156b010082fcb0e2c67d4f1ac75b07]
link TrainerHome to react-bootstrap--><path d="M397.917,1519.21 C412.257,1545.72 443.712,1607.2 459,1662.83 C494.431,1791.76 466.403,2144.47 534,2259.83 C574.49,2328.93 637.346,2298.42 679,2366.83 C733.075,2455.64 636.878,2530.374 716,2597.831 C730.981,2610.603 744.842,2593.694 755,2576.831 C775.214,2543.276 744.215,1902.96 768,1871.83 C775.44,1862.09 786.326,1855.85 797.949,1851.88 " fill="none" id="TrainerHome-&gt;react-bootstrap" style="stroke: #000000; stroke-width: 0.5;"/><polygon fill="#000000" points="802.968,1850.32,793.1848,1849.1846,798.1953,1851.8104,795.5695,1856.8209,802.968,1850.32" style="stroke: #000000; stroke-width: 0.5;"/><!--MD5=[0c61e133b6511b7699108691a6db0db6]
link TrainerHome to styled-components--><path d="M391.223,1492.31 C396.371,1398.18 429.189,830.84 496,373.83 C515.929,237.51 467.729,83.83 605.5,83.83 C605.5,83.83 605.5,83.83 717,83.83 C736.975,83.83 745.28,90.38 755,107.83 C774.628,143.07 743.662,1527.67 768,1559.83 C773.068,1566.53 779.766,1571.58 787.22,1575.37 " fill="none" id="TrainerHome-&gt;styled-components" style="stroke: #000000; stroke-width: 0.5;"/><polygon fill="#000000" points="791.951,1577.57,785.4735,1570.151,787.4163,1575.4638,782.1035,1577.4066,791.951,1577.57" style="stroke: #000000; stroke-width: 0.5;"/><!--MD5=[ee2eb0fd2fa169ec4ab76e319bb41b8b]
link TrainerHome to TrainerCourseCard--><path d="M391.167,1492.17 C396.477,1385.72 433.306,688.14 496,487.83 C506.457,454.42 509.061,443.4 534,418.83 C543.025,409.94 554.557,402.6 565.713,396.82 " fill="none" id="TrainerHome-&gt;TrainerCourseCard" style="stroke: #000000; stroke-width: 0.5;"/><polygon fill="#000000" points="570.462,394.44,560.6238,394.8973,565.9922,396.6806,564.2088,402.049,570.462,394.44" style="stroke: #000000; stroke-width: 0.5;"/><!--MD5=[c4fcb7ac61307da6dd8266714a18314a]
link TrainerMCQQuestion to bootstrap--><path d="M660.818,2827.382 C694.825,2816.913 735.964,2797.566 755,2762.831 C780.18,2716.885 736.285,1861.54 768,1819.83 C778.862,1805.55 797.138,1798.77 814.313,1795.68 " fill="none" id="TrainerMCQQuestion-&gt;bootstrap" style="stroke: #000000; stroke-width: 0.5;"/><polygon fill="#000000" points="819.599,1794.83,810.0798,1792.3032,814.6619,1795.6205,811.3446,1800.2026,819.599,1794.83" style="stroke: #000000; stroke-width: 0.5;"/><!--MD5=[52663133ca5ef5b7b26195e78d56bd85]
link TrainerMCQQuestion to react-bootstrap--><path d="M616.939,2856.05 C631.76,2883.627 660.684,2939.702 679,2989.831 C701.087,3050.281 665.008,3090.565 716,3129.831 C731.598,3141.842 744.909,3125.734 755,3108.831 C772.615,3079.326 747.244,1899.22 768,1871.83 C775.402,1862.07 786.271,1855.81 797.892,1851.84 " fill="none" id="TrainerMCQQuestion-&gt;react-bootstrap" style="stroke: #000000; stroke-width: 0.5;"/><polygon fill="#000000" points="802.91,1850.27,793.1271,1849.1319,798.1369,1851.7591,795.5097,1856.7689,802.91,1850.27" style="stroke: #000000; stroke-width: 0.5;"/><!--MD5=[277939216f4e42457744274fd497c4bb]
link TrainerRouting to bootstrap--><path d="M276.567,2721.29 C330.604,2714.805 419.247,2705.831 496,2705.831 C496,2705.831 496,2705.831 717,2705.831 C747.447,2705.831 745.949,2677.902 755,2648.831 C768.693,2604.852 740.083,1856.47 768,1819.83 C778.875,1805.56 797.154,1798.79 814.326,1795.69 " fill="none" id="TrainerRouting-&gt;bootstrap" style="stroke: #000000; stroke-width: 0.5;"/><polygon fill="#000000" points="819.611,1794.84,810.0918,1792.3132,814.6739,1795.6305,811.3566,1800.2126,819.611,1794.84" style="stroke: #000000; stroke-width: 0.5;"/><!--MD5=[a19ca61e75cdfa553132654c0184f53d]
link TrainerRouting to react-bootstrap--><path d="M227.252,2741.982 C232.502,2838.174 265.09,3393.643 320,3441.8311 C467.235,3571.0421 658.075,3541.0633 755,3370.831 C775.603,3334.645 742.879,1905.04 768,1871.83 C775.393,1862.06 786.259,1855.8 797.878,1851.83 " fill="none" id="TrainerRouting-&gt;react-bootstrap" style="stroke: #000000; stroke-width: 0.5;"/><polygon fill="#000000" points="802.897,1850.26,793.1138,1849.1246,798.1243,1851.7504,795.4985,1856.7609,802.897,1850.26" style="stroke: #000000; stroke-width: 0.5;"/><!--MD5=[5d73a4067733936f3e8a1b1c8d733147]
link TrainerRouting to react-router-dom--><path d="M228.052,2713.5 C235.191,2647.17 265.293,2363.27 283,2129.83 C298.383,1927.03 292.618,311.83 496,311.83 C496,311.83 496,311.83 717,311.83 C758.381,311.83 746.149,356.41 755,396.83 C762.219,429.8 747.61,1584.93 768,1611.83 C774.435,1620.32 783.489,1626.16 793.38,1630.15 " fill="none" id="TrainerRouting-&gt;react-router-dom" style="stroke: #000000; stroke-width: 0.5;"/><polygon fill="#000000" points="798.294,1631.96,791.2383,1625.0885,793.6039,1630.227,788.4655,1632.5926,798.294,1631.96" style="stroke: #000000; stroke-width: 0.5;"/><!--MD5=[c3123fca718c565841bfa3c892702160]
link TrainerRouting to TrainerCreateQuiz--><path d="M275.986,2734.551 C292.008,2736.727 309.978,2739.168 326.775,2741.449 " fill="none" id="TrainerRouting-&gt;TrainerCreateQuiz" style="stroke: #000000; stroke-width: 0.5;"/><polygon fill="#000000" points="331.947,2742.151,323.5672,2736.9762,326.9925,2741.4781,322.4906,2744.9034,331.947,2742.151" style="stroke: #000000; stroke-width: 0.5;"/><!--MD5=[602b2a59d55e5ca218d30aadb00962bf]
link TrainerRouting to TrainerHome--><path d="M227.936,2713.491 C234.564,2647.119 262.743,2363.07 283,2129.83 C301.015,1922.41 269.451,1864.81 320,1662.83 C333.173,1610.2 362.361,1552.84 378.047,1524.23 " fill="none" id="TrainerRouting-&gt;TrainerHome" style="stroke: #000000; stroke-width: 0.5;"/><polygon fill="#000000" points="380.628,1519.56,372.7779,1525.5078,378.2125,1523.9378,379.7824,1529.3725,380.628,1519.56" style="stroke: #000000; stroke-width: 0.5;"/><!--MD5=[92f90ab1e59866f8b88aceff76d290d9]
link TrainerRouting to TrainerViewResult--><path d="M227.484,2742.195 C232.693,2814.441 259.132,3137.636 320,3213.831 C325.435,3220.635 332.725,3225.933 340.525,3230.048 " fill="none" id="TrainerRouting-&gt;TrainerViewResult" style="stroke: #000000; stroke-width: 0.5;"/><polygon fill="#000000" points="345.435,3232.459,339.1198,3224.9014,340.947,3230.255,335.5934,3232.0822,345.435,3232.459" style="stroke: #000000; stroke-width: 0.5;"/><!--MD5=[010e975497d352a3cf63fced410c9998]
link TrainerRouting to UserNavbar--><path d="M227.368,2742.123 C233.196,2835.697 267.964,3358.497 320,3403.831 C392.391,3466.8987 518.526,3428.3086 575.75,3405.731 " fill="none" id="TrainerRouting-&gt;UserNavbar" style="stroke: #000000; stroke-width: 0.5;"/><polygon fill="#000000" points="580.41,3403.868,570.5681,3403.4977,575.7678,3405.7254,573.54,3410.9252,580.41,3403.868" style="stroke: #000000; stroke-width: 0.5;"/><!--MD5=[41d382467ef1573f10f6cd66210a1ebf]
link TrainerTFQuestion to bootstrap--><path d="M671.59,2791.847 C701.611,2790.009 735.074,2781.876 755,2757.831 C788.254,2717.703 736.451,1861.31 768,1819.83 C778.862,1805.55 797.139,1798.78 814.314,1795.68 " fill="none" id="TrainerTFQuestion-&gt;bootstrap" style="stroke: #000000; stroke-width: 0.5;"/><polygon fill="#000000" points="819.599,1794.83,810.0798,1792.3032,814.6619,1795.6205,811.3446,1800.2026,819.599,1794.83" style="stroke: #000000; stroke-width: 0.5;"/><!--MD5=[7855520910d1a8b14885837c0ed2467c]
link TrainerTFQuestion to react-bootstrap--><path d="M658.942,2797.846 C666.632,2801.421 673.734,2806.266 679,2812.831 C722.825,2867.466 663.648,3079.303 716,3125.831 C730.875,3139.051 744.969,3121.019 755,3103.831 C772.251,3074.273 747.327,1899.11 768,1871.83 C775.402,1862.07 786.272,1855.81 797.892,1851.84 " fill="none" id="TrainerTFQuestion-&gt;react-bootstrap" style="stroke: #000000; stroke-width: 0.5;"/><polygon fill="#000000" points="802.91,1850.27,793.1271,1849.1319,798.1369,1851.7591,795.5097,1856.7689,802.91,1850.27" style="stroke: #000000; stroke-width: 0.5;"/><!--MD5=[f50fe8580f4bd26bdf5ad1650363cde3]
link TrainerViewResult to bootstrap--><path d="M408.152,3228.914 C470.564,3174.871 681.039,2981.243 755,2767.831 C763.624,2742.947 752.059,1840.79 768,1819.83 C778.861,1805.55 797.138,1798.77 814.313,1795.68 " fill="none" id="TrainerViewResult-&gt;bootstrap" style="stroke: #000000; stroke-width: 0.5;"/><polygon fill="#000000" points="819.598,1794.83,810.0788,1792.3032,814.6609,1795.6205,811.3436,1800.2026,819.598,1794.83" style="stroke: #000000; stroke-width: 0.5;"/><!--MD5=[8061c49dc28a38c42d52028c4d518035]
link TrainerViewResult to react--><path d="M391.648,3228.091 C397.369,3156.754 426.946,2857.958 534,2642.831 C579.153,2552.095 634.915,2558.091 679,2466.83 C749.185,2321.54 734.99,2271.94 755,2111.83 C757.372,2092.85 756.242,1782.91 768,1767.83 C782.051,1749.81 807.889,1743.78 828.119,1741.98 " fill="none" id="TrainerViewResult-&gt;react" style="stroke: #000000; stroke-width: 0.5;"/><polygon fill="#000000" points="833.131,1741.61,823.8615,1738.2818,828.1445,1741.9772,824.4491,1746.2602,833.131,1741.61" style="stroke: #000000; stroke-width: 0.5;"/><!--MD5=[f4757c9e2d6b62e0efaede998538199c]
link TrainerViewResult to react-bootstrap--><path d="M429.323,3256.108 C513.689,3281.662 709.805,3334.613 755,3289.831 C782.981,3262.106 744.228,1903.24 768,1871.83 C775.395,1862.06 786.262,1855.8 797.882,1851.83 " fill="none" id="TrainerViewResult-&gt;react-bootstrap" style="stroke: #000000; stroke-width: 0.5;"/><polygon fill="#000000" points="802.9,1850.26,793.1171,1849.1219,798.1269,1851.7491,795.4997,1856.7589,802.9,1850.26" style="stroke: #000000; stroke-width: 0.5;"/><!--MD5=[a43027405818fd1cfa8f87758c717f5e]
link TrainerViewResult to react-icons--><path d="M397.864,3259.32 C415.559,3294.524 464.233,3380.177 534,3414.831 C622.012,3458.5478 697.912,3487.8201 755,3407.831 C845.266,3281.355 855.806,2099.35 856.886,1920.47 " fill="none" id="TrainerViewResult-&gt;react-icons" style="stroke: #000000; stroke-width: 0.5;"/><polygon fill="#000000" points="856.917,1915.23,852.8656,1924.207,856.8884,1920.2299,860.8655,1924.2527,856.917,1915.23" style="stroke: #000000; stroke-width: 0.5;"/><!--MD5=[ce1fb3acd601e913ad4449607c7a9965]
link TrainerViewResult to UserNavbar--><path d="M420.912,3257.565 C442.797,3267.98 472.63,3283.288 497,3299.831 C531.977,3323.574 568.461,3356.912 588.95,3376.553 " fill="none" id="TrainerViewResult-&gt;UserNavbar" style="stroke: #000000; stroke-width: 0.5;"/><polygon fill="#000000" points="592.586,3380.055,588.8784,3370.9307,588.9847,3376.5865,583.3288,3376.6928,592.586,3380.055" style="stroke: #000000; stroke-width: 0.5;"/><!--MD5=[96651c91d0dbfe6c0fbb6bf03e1885f3]
link UserNavbar to react-bootstrap--><path d="M651.209,3398.229 C685.084,3399.706 730.286,3395.219 755,3365.831 C781.711,3334.068 742.962,1904.93 768,1871.83 C775.393,1862.06 786.259,1855.8 797.879,1851.83 " fill="none" id="UserNavbar-&gt;react-bootstrap" style="stroke: #000000; stroke-width: 0.5;"/><polygon fill="#000000" points="802.897,1850.26,793.1138,1849.1246,798.1243,1851.7504,795.4985,1856.7609,802.897,1850.26" style="stroke: #000000; stroke-width: 0.5;"/><!--MD5=[0314293205bca475d7f1907dc68cb82a]
link UserNavbar to react-icons--><path d="M631.208,3404.079 C663.667,3417.629 721.699,3434.9529 755,3403.831 C811.789,3350.759 850.935,2102.22 856.355,1919.95 " fill="none" id="UserNavbar-&gt;react-icons" style="stroke: #000000; stroke-width: 0.5;"/><polygon fill="#000000" points="856.505,1914.87,852.2494,1923.752,856.3621,1919.868,860.2462,1923.9806,856.505,1914.87" style="stroke: #000000; stroke-width: 0.5;"/><script type="text/plantuml"><![CDATA[MD5=[24738e89a280579955be32e3f2eed9e9]
@startuml

scale max 1920 width
left to right direction

skinparam nodesep 18
skinparam ranksep 37
skinparam monochrome true
skinparam shadowing false
skinparam defaultFontName Tahoma
skinparam defaultFontSize 12
skinparam roundCorner 6
skinparam dpi 150
skinparam arrowColor black
skinparam arrowThickness 0.5
skinparam packageTitleAlignment left

skinparam usecase {
  borderThickness 0.5
}

skinparam rectangle {
  borderThickness 0.5
}

skinparam component {
  borderThickness 1
}


(App)
(ButtonNavbar)
(ClassesContainer)
(<b>EngineerCourses</b>)
(<b>EngineerHome</b>)
(<b>EngineerView</b>)
(HRClasses)
(HRCourses)
(HRCreateClass)
(HRCreateCourse)
(HREditClass)
(HREditCourse)
(HREnrol)
(HREnrolClasses)
(HRHome)
(HRRouting)
(<b>src</b>)
(TrainerCourseCard)
(TrainerCreateQuiz)
(TrainerHome)
(TrainerMCQQuestion)
(TrainerRouting)
(TrainerTFQuestion)
(TrainerViewResult)
(UserNavbar)

package "Dependencies" {
  [axios]
  [bootstrap]
  [react]
  [react-bootstrap]
  [react-dom]
  [react-icons]
  [react-router-dom]
  [styled-components]
}

(App) --> (HRRouting)
(App) ---> [react]
(App) ---> [react-bootstrap]
(App) ---> [react-router-dom]
(App) ---> [styled-components]
(App) --> (TrainerRouting)
(ButtonNavbar) ----> [react-bootstrap]
(ClassesContainer) ----> [axios]
(ClassesContainer) ----> [bootstrap]
(ClassesContainer) ----> [react-bootstrap]
(ClassesContainer) ----> [react-router-dom]
(<b>EngineerCourses</b>) ----[thickness=1]> [axios]
(<b>EngineerCourses</b>) ----[thickness=1]> [bootstrap]
(<b>EngineerCourses</b>) ---[thickness=1]> (ButtonNavbar)
(<b>EngineerCourses</b>) ----[thickness=1]> [react]
(<b>EngineerCourses</b>) ----[thickness=1]> [react-bootstrap]
(<b>EngineerCourses</b>) ----[thickness=1]> [react-router-dom]
(<b>EngineerCourses</b>) ----[thickness=1]> [styled-components]
(<b>EngineerView</b>) ----[thickness=1]> [axios]
(<b>EngineerView</b>) ----[thickness=1]> [bootstrap]
(<b>EngineerView</b>) ----[thickness=1]> [react]
(<b>EngineerView</b>) ----[thickness=1]> [react-bootstrap]
(<b>EngineerView</b>) ----[thickness=1]> [react-router-dom]
(HRClasses) ----> [axios]
(HRClasses) ----> [bootstrap]
(HRClasses) ---> (ClassesContainer)
(HRClasses) ----> [react]
(HRClasses) ----> [react-bootstrap]
(HRClasses) ----> [react-router-dom]
(HRCourses) ----> [axios]
(HRCourses) ----> [bootstrap]
(HRCourses) ----> [react]
(HRCourses) ----> [react-bootstrap]
(HRCourses) ----> [react-router-dom]
(HRCreateClass) ----> [axios]
(HRCreateClass) ----> [bootstrap]
(HRCreateClass) ----> [react]
(HRCreateClass) ----> [react-bootstrap]
(HRCreateClass) ----> [react-router-dom]
(HRCreateCourse) ----> [axios]
(HRCreateCourse) ----> [bootstrap]
(HRCreateCourse) ----> [react]
(HRCreateCourse) ----> [react-bootstrap]
(HRCreateCourse) ----> [react-router-dom]
(HREditClass) ----> [axios]
(HREditClass) ----> [bootstrap]
(HREditClass) ----> [react]
(HREditClass) ----> [react-bootstrap]
(HREditClass) ----> [react-router-dom]
(HREditCourse) ----> [axios]
(HREditCourse) ----> [bootstrap]
(HREditCourse) ----> [react]
(HREditCourse) ----> [react-bootstrap]
(HREditCourse) ----> [react-router-dom]
(HREnrol) ----> [axios]
(HREnrol) ----> [bootstrap]
(HREnrol) ----> [react]
(HREnrol) ----> [react-bootstrap]
(HREnrol) ----> [react-router-dom]
(HREnrolClasses) ----> [axios]
(HREnrolClasses) ----> [bootstrap]
(HREnrolClasses) ----> [react]
(HREnrolClasses) ----> [react-bootstrap]
(HREnrolClasses) ----> [react-router-dom]
(HRHome) ----> [bootstrap]
(HRHome) ----> [react-bootstrap]
(HRRouting) ----> [bootstrap]
(HRRouting) --> (HRClasses)
(HRRouting) --> (HRCourses)
(HRRouting) --> (HRCreateClass)
(HRRouting) --> (HRCreateCourse)
(HRRouting) --> (HREditClass)
(HRRouting) --> (HREditCourse)
(HRRouting) --> (HREnrol)
(HRRouting) --> (HREnrolClasses)
(HRRouting) --> (HRHome)
(HRRouting) ----> [react-bootstrap]
(HRRouting) ----> [react-router-dom]
(HRRouting) ---> (UserNavbar)
(<b>src</b>) -[thickness=1]> (App)
(<b>src</b>) ---[thickness=1]> [react]
(<b>src</b>) ---[thickness=1]> [react-dom]
(<b>src</b>) ---[thickness=1]> [react-router-dom]
(TrainerCourseCard) ----> [react-bootstrap]
(TrainerCourseCard) ----> [react-router-dom]
(TrainerCourseCard) ----> [styled-components]
(TrainerCreateQuiz) ----> [axios]
(TrainerCreateQuiz) ----> [bootstrap]
(TrainerCreateQuiz) ----> [react]
(TrainerCreateQuiz) ----> [react-bootstrap]
(TrainerCreateQuiz) ---> (TrainerMCQQuestion)
(TrainerCreateQuiz) ---> (TrainerTFQuestion)
(TrainerHome) ----> [axios]
(TrainerHome) ----> [react]
(TrainerHome) ----> [react-bootstrap]
(TrainerHome) ----> [styled-components]
(TrainerHome) ---> (TrainerCourseCard)
(TrainerMCQQuestion) ----> [bootstrap]
(TrainerMCQQuestion) ----> [react-bootstrap]
(TrainerRouting) ----> [bootstrap]
(TrainerRouting) ----> [react-bootstrap]
(TrainerRouting) ----> [react-router-dom]
(TrainerRouting) --> (TrainerCreateQuiz)
(TrainerRouting) --> (TrainerHome)
(TrainerRouting) --> (TrainerViewResult)
(TrainerRouting) ---> (UserNavbar)
(TrainerTFQuestion) ----> [bootstrap]
(TrainerTFQuestion) ----> [react-bootstrap]
(TrainerViewResult) ----> [bootstrap]
(TrainerViewResult) ----> [react]
(TrainerViewResult) ----> [react-bootstrap]
(TrainerViewResult) ----> [react-icons]
(TrainerViewResult) ---> (UserNavbar)
(UserNavbar) ----> [react-bootstrap]
(UserNavbar) ----> [react-icons]

@enduml


' View and edit on https://arkit.pro
]]></script></g></svg>